<?xml version="1.0" encoding="UTF-8" standalone="no"?>
<!-- Created with Inkscape (http://www.inkscape.org/) -->

<svg
   xmlns:dc="http://purl.org/dc/elements/1.1/"
   xmlns:cc="http://creativecommons.org/ns#"
   xmlns:rdf="http://www.w3.org/1999/02/22-rdf-syntax-ns#"
   xmlns:svg="http://www.w3.org/2000/svg"
   xmlns="http://www.w3.org/2000/svg"
   xmlns:sodipodi="http://sodipodi.sourceforge.net/DTD/sodipodi-0.dtd"
   xmlns:inkscape="http://www.inkscape.org/namespaces/inkscape"
   id="svg2"
   sodipodi:version="0.32"
   inkscape:version="0.92.4 (5da689c313, 2019-01-14)"
   width="2560"
   height="1980"
   version="1.0"
   sodipodi:docname="alumni.svg">
  <metadata
     id="metadata7">
    <rdf:RDF>
      <cc:Work
         rdf:about="">
        <dc:format>image/svg+xml</dc:format>
        <dc:type
           rdf:resource="http://purl.org/dc/dcmitype/StillImage" />
        <dc:title></dc:title>
      </cc:Work>
    </rdf:RDF>
  </metadata>
  <defs
     id="defs5">
    <clipPath
       id="clipPath162"
       clipPathUnits="userSpaceOnUse">
      <path
         inkscape:connector-curvature="0"
         id="path160"
         d="M 98.4126,212.309 H 268.337 V 156.135 H 98.4126 Z" />
    </clipPath>
    <clipPath
       id="clipPath178"
       clipPathUnits="userSpaceOnUse">
      <path
         inkscape:connector-curvature="0"
         id="path176"
         d="M 334.944,207.956 H 471.985 V 160.487 H 334.944 Z" />
    </clipPath>
    <clipPath
       id="clipPath194"
       clipPathUnits="userSpaceOnUse">
      <path
         inkscape:connector-curvature="0"
         id="path192"
         d="M 563.119,204.992 H 723.275 V 157.523 H 563.119 Z" />
    </clipPath>
    <clipPath
       id="clipPath210"
       clipPathUnits="userSpaceOnUse">
      <path
         inkscape:connector-curvature="0"
         id="path208"
         d="M 0,800 H 800 V 0 H 0 Z" />
    </clipPath>
  </defs>
  <sodipodi:namedview
     inkscape:window-height="768"
     inkscape:window-width="1366"
     inkscape:pageshadow="2"
     inkscape:pageopacity="0.0"
     guidetolerance="10.0"
     gridtolerance="10.0"
     objecttolerance="10.0"
     borderopacity="1.0"
     bordercolor="#666666"
     pagecolor="#ffffff"
     id="base"
     inkscape:zoom="0.29191919"
     inkscape:cx="1280"
     inkscape:cy="990"
     inkscape:window-x="0"
     inkscape:window-y="0"
     inkscape:current-layer="svg2"
     showgrid="false"
     inkscape:window-maximized="0" />
  <g
     id="g1302"
     transform="matrix(2.9509173,0,0,2.9509173,63.435916,-129.81704)">
    <g
       transform="matrix(1.3333333,0,0,-1.3333333,-86.2932,867.56315)"
       id="g156">
      <g
         id="g158" />
      <g
         id="g170">
        <g
           style="opacity:0.19999701"
           id="g168"
           clip-path="url(#clipPath162)">
          <g
             id="g166"
             transform="translate(268.3369,184.2207)">
            <path
               inkscape:connector-curvature="0"
               id="path164"
               style="fill:#087f82;fill-opacity:1;fill-rule:nonzero;stroke:none"
               d="m 0,0 c 0,-15.512 -38.039,-28.086 -84.962,-28.086 -46.924,0 -84.962,12.574 -84.962,28.086 0,15.513 38.038,28.088 84.962,28.088 C -38.039,28.088 0,15.513 0,0" />
          </g>
        </g>
      </g>
    </g>
    <g
       transform="matrix(1.3333333,0,0,-1.3333333,-133.02217,859.21869)"
       id="g172">
      <g
         id="g174" />
      <g
         id="g186">
        <g
           style="opacity:0.19999701"
           id="g184"
           clip-path="url(#clipPath178)">
          <g
             id="g182"
             transform="translate(471.9854,184.2207)">
            <path
               inkscape:connector-curvature="0"
               id="path180"
               style="fill:#087f82;fill-opacity:1;fill-rule:nonzero;stroke:none"
               d="m 0,0 c 0,-13.107 -30.679,-23.733 -68.521,-23.733 -37.843,0 -68.521,10.626 -68.521,23.733 0,13.108 30.678,23.735 68.521,23.735 C -30.679,23.735 0,13.108 0,0" />
          </g>
        </g>
      </g>
    </g>
    <g
       transform="matrix(1.3333333,0,0,-1.3333333,-184.75782,862.55647)"
       id="g188">
      <g
         id="g190" />
      <g
         id="g202">
        <g
           style="opacity:0.19999701"
           id="g200"
           clip-path="url(#clipPath194)">
          <g
             id="g198"
             transform="translate(723.2754,181.2568)">
            <path
               inkscape:connector-curvature="0"
               id="path196"
               style="fill:#087f82;fill-opacity:1;fill-rule:nonzero;stroke:none"
               d="m 0,0 c 0,-13.107 -35.854,-23.733 -80.079,-23.733 -44.225,0 -80.077,10.626 -80.077,23.733 0,13.108 35.852,23.735 80.077,23.735 C -35.854,23.735 0,13.108 0,0" />
          </g>
        </g>
      </g>
    </g>
    <g
       transform="matrix(1.1168573,0,0,-1.1168573,-43.147395,816.35679)"
       id="g204">
      <g
         clip-path="url(#clipPath210)"
         id="g206">
        <g
           transform="translate(368.626,351.3223)"
           id="g212">
          <path
             inkscape:connector-curvature="0"
             id="path214"
             style="fill:#294360;fill-opacity:1;fill-rule:nonzero;stroke:none"
             d="m 0,0 c 0,0 -8.685,-5.031 -15.019,-15.031 -6.333,-10 -15.611,-52.125 -3.302,-56.458 12.308,-4.333 22.362,5.334 22.362,5.334 l 3.667,22.833 3,15.678 z" />
        </g>
        <g
           transform="translate(382.9399,244.5947)"
           id="g216">
          <path
             inkscape:connector-curvature="0"
             id="path218"
             style="fill:#ffcd9f;fill-opacity:1;fill-rule:nonzero;stroke:none"
             d="m 0,0 -14.315,1.802 -3.204,-30.633 c 0,0 7.208,-2.903 13.415,-1.902 z" />
        </g>
        <g
           transform="translate(426.9365,242.4238)"
           id="g220">
          <path
             inkscape:connector-curvature="0"
             id="path222"
             style="fill:#ffcd9f;fill-opacity:1;fill-rule:nonzero;stroke:none"
             d="m 0,0 3.006,-28.162 c 0,0 7.957,-4.506 13.062,0.751 L 13.287,1.95 C 13.287,1.95 3.303,3.835 0,0" />
        </g>
        <g
           transform="translate(365.521,309.4658)"
           id="g224">
          <path
             inkscape:connector-curvature="0"
             id="path226"
             style="fill:#ac6c82;fill-opacity:1;fill-rule:nonzero;stroke:none"
             d="m 0,0 -8.209,-56.661 c 0,0 4.205,-7.608 19.422,-9.61 15.216,-2.003 20.823,6.406 20.823,6.406 l 5.253,39.844 6.002,-39.409 c 0,0 6.164,-9.847 24.785,-7.15 19.023,2.755 15.816,12.52 15.816,12.52 L 76.083,-3.604 47.251,2.803 H 29.032 Z" />
        </g>
        <g
           transform="translate(352.585,370.5937)"
           id="g228">
          <path
             inkscape:connector-curvature="0"
             id="path230"
             style="fill:#ffcd9f;fill-opacity:1;fill-rule:nonzero;stroke:none"
             d="m 0,0 c 0,0 -9.688,-42.708 -10.289,-65.533 0,0 -6.208,-20.822 -3.404,-30.634 2.803,-9.811 6.483,-3.003 6.483,-3.003 0,0 1.426,-2 3.127,-1.8 1.702,0.199 2.303,1.901 2.303,1.901 0,0 1.302,-1.904 3.504,-1.101 2.202,0.801 2.302,3.002 2.302,3.002 0,0 2.315,-0.987 3.661,-0.193 1.345,0.795 0.957,4.298 0,6.4 -0.958,2.103 -2.059,5.506 -2.059,6.608 0,1.102 2.503,14.215 0.1,18.72 -2.403,4.505 -3.203,5.506 -3.103,7.308 0.1,1.802 6.77,44.933 10.843,52.35 4.073,7.417 -3.635,5.514 -3.635,5.514 L 4.727,0.74 Z" />
        </g>
        <g
           transform="translate(454.4189,296.251)"
           id="g232">
          <path
             inkscape:connector-curvature="0"
             id="path234"
             style="fill:#ffcd9f;fill-opacity:1;fill-rule:nonzero;stroke:none"
             d="M 0,0 C 0,0 9.01,11.613 11.012,29.633 13.014,47.653 2.203,71.321 2.51,71.5 2.816,71.679 -9.211,75.083 -9.211,75.083 l -1.225,-6.296 c 0,0 6.631,-19.533 8.233,-34.75 C -0.602,18.821 -9.611,7.208 -9.611,7.208 h -2.832 c 0,0 -4.627,-2.602 -7.004,-10.211 -2.377,-7.608 0.224,-8.21 2.427,-7.009 0,0 -1.4,-7.807 2.204,-6.607 0,0 0.384,-4.947 3.613,-5.004 0,0 0.976,-2.404 3.285,-2.203 2.311,0.2 5.313,4.005 4.914,12.214" />
        </g>
        <g
           transform="translate(434.4971,374.9375)"
           id="g236">
          <path
             inkscape:connector-curvature="0"
             id="path238"
             style="fill:#6991ac;fill-opacity:1;fill-rule:nonzero;stroke:none"
             d="m 0,0 8.309,-70.078 c 0,0 -39.643,-20.422 -80.489,4.806 0,0 4.406,41.646 4.806,54.861 0,0 -11.213,0.399 -16.818,8.808 l 12.813,39.245 31.835,12.064 h 19.972 L 8.309,38.743 c 0,0 18.82,-33.036 21.222,-36.64 0,0 -3.004,-15.317 -25.226,-11.413 z" />
        </g>
        <g
           transform="translate(394.9531,433.5024)"
           id="g240">
          <path
             inkscape:connector-curvature="0"
             id="path242"
             style="fill:#e2a879;fill-opacity:1;fill-rule:nonzero;stroke:none"
             d="m 0,0 v -8.859 c 0,0 9.461,-6.008 19.972,0 V 0 H 3.754 Z" />
        </g>
        <g
           transform="translate(464.1025,493.374)"
           id="g244">
          <path
             inkscape:connector-curvature="0"
             id="path246"
             style="fill:#e2a879;fill-opacity:1;fill-rule:nonzero;stroke:none"
             d="m 0,0 c 0,0 -1.275,15.912 6.133,16.712 7.408,0.802 5.545,-31.724 -10.942,-34.381 z" />
        </g>
        <g
           transform="translate(343.6929,507.0835)"
           id="g248">
          <path
             inkscape:connector-curvature="0"
             id="path250"
             style="fill:#e2a879;fill-opacity:1;fill-rule:nonzero;stroke:none"
             d="m 0,0 c 0,0 -4,-1.201 -3.399,-11.413 0.6,-10.211 8.083,-16.396 8.083,-16.396 v 8.387 c 0,0 -0.676,10.813 -0.876,11.613 C 3.608,-7.008 0,0 0,0" />
        </g>
        <g
           transform="translate(343.5972,510.0864)"
           id="g252">
          <path
             inkscape:connector-curvature="0"
             id="path254"
             style="fill:#ffcd9f;fill-opacity:1;fill-rule:nonzero;stroke:none"
             d="m 0,0 c 0,0 -0.149,-79.287 62.769,-79.287 53.459,0 59.465,73.881 59.465,73.881 0,0 -8.109,38.743 -8.109,40.545 0,1.802 -15.317,9.911 -17.12,10.511 -1.8,0.601 -45.949,-0.3 -48.051,0 -2.103,0.301 -24.928,-4.204 -28.532,-4.204 -3.604,0 -9.61,-1.802 -10.211,-3.003 C 9.61,37.241 0,0 0,0" />
        </g>
        <g
           transform="translate(464.1025,493.374)"
           id="g256">
          <path
             inkscape:connector-curvature="0"
             id="path258"
             style="fill:#735360;fill-opacity:1;fill-rule:nonzero;stroke:none"
             d="m 0,0 c 0,0 -3.078,-0.896 -5.881,0 l -6.207,22.119 1.203,3.603 c 0,0 -3.402,18.421 -11.011,24.027 0,0 -16.42,-7.809 -38.443,-7.208 -22.025,0.601 -42.448,6.407 -42.448,6.407 0,0 -5.605,-2.403 -10.811,-18.22 v -8.81 c 0,0 -5.393,-9.409 -6.2,-13.214 0,0 -4.986,10.836 -0.707,35.439 l -4.705,3.804 4.705,0.6 -17.12,14.027 13.754,2.191 c 0,0 -12.953,7.609 -16.557,12.614 -3.604,5.005 -8.809,10.011 -8.809,10.011 0,0 42.848,3.404 46.251,4.605 0,0 -8.26,8.008 -12.74,15.217 0,0 43.774,-8.81 50.982,-11.012 0,0 -9.01,13.414 -12.614,15.617 0,0 35.84,-13.816 58.264,-32.235 0,0 -4.207,14.215 -5.808,18.42 0,0 21.173,-28.833 24.902,-39.444 0,0 12.49,-33.826 0,-58.558" />
        </g>
        <g
           transform="translate(380.7124,495.978)"
           id="g260">
          <path
             inkscape:connector-curvature="0"
             id="path262"
             style="fill:#3e3947;fill-opacity:1;fill-rule:nonzero;stroke:none"
             d="m 0,0 c 0,-3.207 -2.062,-5.807 -4.605,-5.807 -2.543,0 -4.605,2.6 -4.605,5.807 0,3.207 2.062,5.806 4.605,5.806 C -2.062,5.806 0,3.207 0,0" />
        </g>
        <g
           transform="translate(431.042,495.978)"
           id="g264">
          <path
             inkscape:connector-curvature="0"
             id="path266"
             style="fill:#3e3947;fill-opacity:1;fill-rule:nonzero;stroke:none"
             d="m 0,0 c 0,-3.207 -2.063,-5.807 -4.605,-5.807 -2.543,0 -4.604,2.6 -4.604,5.807 0,3.207 2.061,5.806 4.604,5.806 C -2.063,5.806 0,3.207 0,0" />
        </g>
        <g
           transform="translate(379.311,514.8071)"
           id="g268">
          <path
             inkscape:connector-curvature="0"
             id="path270"
             style="fill:#735360;fill-opacity:1;fill-rule:nonzero;stroke:none"
             d="m 0,0 c 0,0 -2.485,2.403 -5.681,1.802 -3.194,-0.6 -5.68,-4.204 -5.68,-4.204 0,0 0.473,6.907 6.391,7.508 0,0 2.13,0.4 4.97,-1.002 z" />
        </g>
        <g
           transform="translate(420.5811,520.8984)"
           id="g272">
          <path
             inkscape:connector-curvature="0"
             id="path274"
             style="fill:#735360;fill-opacity:1;fill-rule:nonzero;stroke:none"
             d="m 0,0 v -5.105 c 0,0 7.408,5.405 13.916,-2.303 0,0 -1.102,11.112 -13.916,7.408" />
        </g>
        <g
           transform="translate(392.2603,482.356)"
           id="g276">
          <path
             inkscape:connector-curvature="0"
             id="path278"
             style="fill:#e2a879;fill-opacity:1;fill-rule:nonzero;stroke:none"
             d="m 0,0 c 0,0 -5.617,-7.107 2.693,-12.813 0,0 -8.532,-0.563 -9.516,5.605 C -7.925,-0.3 0,0 0,0" />
        </g>
        <g
           transform="translate(383.5405,462.4341)"
           id="g280">
          <path
             inkscape:connector-curvature="0"
             id="path282"
             style="fill:#fdf5ed;fill-opacity:1;fill-rule:nonzero;stroke:none"
             d="m 0,0 c 0,0 0.066,-1.796 0.838,-4.211 6.239,-1.679 24.449,-5.484 40.47,1.849 1.488,4.242 1.588,7.768 1.588,7.768 C 26.126,-6.607 0,0 0,0" />
        </g>
        <g
           transform="translate(384.3789,458.2227)"
           id="g284">
          <path
             inkscape:connector-curvature="0"
             id="path286"
             style="fill:#9e005d;fill-opacity:1;fill-rule:nonzero;stroke:none"
             d="m 0,0 c 0.692,-2.165 1.966,-4.824 4.263,-7.145 2.073,2.14 5.063,3.74 8.299,4.937 C 7.034,-1.713 2.531,-0.682 0,0" />
        </g>
        <g
           transform="translate(404.9883,445.6152)"
           id="g288">
          <path
             inkscape:connector-curvature="0"
             id="path290"
             style="fill:#da727e;fill-opacity:1;fill-rule:nonzero;stroke:none"
             d="M 0,0 C 12.433,0.359 17.663,8.191 19.86,14.457 10.341,10.099 0.048,9.674 -8.048,10.399 -11.283,9.203 -14.273,7.603 -16.346,5.462 -13.213,2.297 -8.167,-0.235 0,0" />
        </g>
        <g
           transform="translate(400.5586,441.4111)"
           id="g292">
          <path
             inkscape:connector-curvature="0"
             id="path294"
             style="fill:#e2a879;fill-opacity:1;fill-rule:nonzero;stroke:none"
             d="M 0,0 C 0,0 7.31,-2.202 11.915,0.401 11.915,0.401 7.009,-5.607 0,0" />
        </g>
        <g
           transform="translate(382.2393,214.9629)"
           id="g296">
          <path
             inkscape:connector-curvature="0"
             id="path298"
             style="fill:#edf9fd;fill-opacity:1;fill-rule:nonzero;stroke:none"
             d="m 0,0 c 0,0 -9.911,5.707 -18.72,2.503 0,0 -2.003,-0.5 -2.302,-4.905 -0.301,-4.406 -0.602,-8.811 -0.602,-8.811 0,0 13.916,-6.807 16.519,-6.106 2.603,0.7 5.806,2.302 5.806,2.603 0,0.301 0.401,11.012 0.401,11.012 0,0 0.118,2.953 -1.102,3.704" />
        </g>
        <g
           transform="translate(361.7671,172.8916)"
           id="g300">
          <path
             inkscape:connector-curvature="0"
             id="path302"
             style="fill:#edf9fd;fill-opacity:1;fill-rule:nonzero;stroke:none"
             d="m 0,0 c 15.167,-1.127 21.548,7.733 23.351,10.812 v 4.328 c 0,-0.6 -11.788,-8.109 -23.001,-7.608 -11.213,0.501 -11.538,4.105 -11.538,4.105 V 5.105 c 0,0 0.339,-4.3 11.188,-5.105" />
        </g>
        <g
           transform="translate(357.7871,201.873)"
           id="g304">
          <path
             inkscape:connector-curvature="0"
             id="path306"
             style="fill:#67727a;fill-opacity:1;fill-rule:nonzero;stroke:none"
             d="m 0,0 c -2.477,-3.529 -5.931,-10.286 -7.208,-17.345 0,0 0.059,-0.548 0.779,-1.243 0,0 4.074,15.903 10.669,22.338 C 2.618,2.854 1.096,1.56 0,0" />
        </g>
        <g
           transform="translate(382.9399,204.876)"
           id="g308">
          <path
             inkscape:connector-curvature="0"
             id="path310"
             style="fill:#67727a;fill-opacity:1;fill-rule:nonzero;stroke:none"
             d="m 0,0 0.096,-1.872 c 0,0 -2.199,-2.782 -5.277,-2.182 -1.594,0.311 -3.33,1.709 -5.06,3.09 0,0 -7.297,-7.477 -8.488,-23.492 h -0.002 c 10.538,0.409 20.909,7.049 20.909,7.611 v 15.719 c 0,0 -0.902,0.977 -2.178,1.126" />
        </g>
        <g
           transform="translate(362.1172,180.4238)"
           id="g312">
          <path
             inkscape:connector-curvature="0"
             id="path314"
             style="fill:#dddddd;fill-opacity:1;fill-rule:nonzero;stroke:none"
             d="m 0,0 c -6.85,0.306 -9.627,1.768 -10.759,2.861 0,0 0.948,-2.76 3.551,-3.762 2.6,-1.001 9.28,0.891 9.299,0.897 C 1.395,-0.032 0.696,-0.032 0,0" />
        </g>
        <g
           transform="translate(372.6987,203.9121)"
           id="g316">
          <path
             inkscape:connector-curvature="0"
             id="path318"
             style="fill:#dddddd;fill-opacity:1;fill-rule:nonzero;stroke:none"
             d="m 0,0 v 0 c -1.61,1.284 -3.216,2.555 -4.7,2.916 -1.717,0.419 -3.925,-0.074 -5.971,-1.205 -6.596,-6.435 -10.669,-22.338 -10.669,-22.338 1.131,-1.094 3.908,-2.556 10.758,-2.861 0.697,-0.033 1.395,-0.033 2.092,-0.004 h 0.002 C -7.296,-7.478 0,0 0,0" />
        </g>
        <g
           transform="translate(448.4111,205.5518)"
           id="g320">
          <path
             inkscape:connector-curvature="0"
             id="path322"
             style="fill:#edf9fd;fill-opacity:1;fill-rule:nonzero;stroke:none"
             d="m 0,0 c 0,0 -0.201,6.006 -0.5,7.509 -0.301,1.501 -2.002,3.804 -4.906,3.704 -2.903,-0.101 -11.584,0.078 -13.248,-0.763 -1.666,-0.84 -2.071,-1.441 -2.821,-4.344 -0.75,-2.902 -0.55,-9.309 -0.55,-9.309 0,0 2.404,-4.805 3.005,-4.705 0.6,0.099 5.706,1.002 6.307,1.502 0.602,0.5 6.004,1.7 6.807,2.202 0.801,0.5 4.004,1.301 4.103,1.6 C -1.701,-2.303 0,0 0,0" />
        </g>
        <g
           transform="translate(449.7627,172.8916)"
           id="g324">
          <path
             inkscape:connector-curvature="0"
             id="path326"
             style="fill:#edf9fd;fill-opacity:1;fill-rule:nonzero;stroke:none"
             d="M 0,0 C 8.184,0.45 10.211,4.129 10.211,4.129 V 9.762 C 9.863,8.384 8.391,6.418 2.953,5.876 -5.66,5.018 -20.719,6.992 -25.26,14.723 c -0.013,0.025 -0.029,0.047 -0.043,0.071 V 11.187 C -20.498,1.576 -8.184,-0.451 0,0" />
        </g>
        <g
           transform="translate(452.7158,178.7676)"
           id="g328">
          <path
             inkscape:connector-curvature="0"
             id="path330"
             style="fill:#edf9fd;fill-opacity:1;fill-rule:nonzero;stroke:none"
             d="m 0,0 c 5.437,0.542 6.91,2.508 7.258,3.886 v 1.5 C 6.459,8.015 5.348,10.979 4.035,13.875 2.734,14.523 0.057,15.499 -3.504,14.872 -8.607,13.971 -15.139,11.402 -16.904,1.557 -11.168,-0.091 -4.648,-0.463 0,0" />
        </g>
        <g
           transform="translate(435.3721,202.4307)"
           id="g332">
          <path
             inkscape:connector-curvature="0"
             id="path334"
             style="fill:#67727a;fill-opacity:1;fill-rule:nonzero;stroke:none"
             d="M 0,0 C -1.285,-0.886 -2.41,-1.602 -3.404,-1.759 -6.256,-2.209 -9.01,1.544 -9.01,1.544 l 0.028,2.253 c -1.825,-0.225 -1.93,-2.778 -1.93,-2.778 v -15.764 c 0.014,-0.025 0.029,-0.046 0.043,-0.071 2.092,-3.558 6.416,-5.886 11.308,-7.29 0.872,4.856 2.903,7.936 5.35,9.924 0,0.002 -0.002,0.004 -0.002,0.005 C 4.695,-7.13 1.184,-1.723 0,0" />
        </g>
        <g
           transform="translate(456.751,192.6426)"
           id="g336">
          <path
             inkscape:connector-curvature="0"
             id="path338"
             style="fill:#dddddd;fill-opacity:1;fill-rule:nonzero;stroke:none"
             d="m 0,0 c -3.375,7.437 -8.082,14.413 -12.244,14.035 -3.766,-0.342 -6.735,-2.594 -9.135,-4.247 1.184,-1.723 4.695,-7.13 5.787,-12.177 0,-0.001 0.002,-0.003 0.002,-0.005 2.514,2.044 5.467,2.935 8.051,3.391 C -3.979,1.624 -1.301,0.648 0,0" />
        </g>
        <g
           transform="translate(416.335,424.0879)"
           id="g340">
          <path
             inkscape:connector-curvature="0"
             id="path342"
             style="fill:#455c7b;fill-opacity:1;fill-rule:nonzero;stroke:none"
             d="m 0,0 c 0,0 -24.343,-57.509 -51.093,-84.764 0,0 -1.232,-12.989 -1.496,-15.645 0,0 51.497,39.039 71.685,92.901 0,0 -17.686,6.953 -19.096,7.508" />
        </g>
        <g
           transform="translate(367.123,364.5264)"
           id="g344">
          <path
             inkscape:connector-curvature="0"
             id="path346"
             style="fill:#4a7891;fill-opacity:1;fill-rule:nonzero;stroke:none"
             d="M 0,0 C 0,0 1.401,27.229 1.501,27.63 1.602,28.031 -2.749,0.345 -2.749,0.345 Z" />
        </g>
        <g
           transform="translate(339.8926,291.3467)"
           id="g348">
          <path
             inkscape:connector-curvature="0"
             id="path350"
             style="fill:#e2a879;fill-opacity:1;fill-rule:nonzero;stroke:none"
             d="m 0,0 c 0,0 -1.102,-7.009 2.703,-8.01 3.804,-1 3.705,1.202 4.105,4.505 0.4,3.305 1.801,6.109 2.803,7.409 0,0 -1.903,-5.105 -1.802,-7.808 0.1,-2.703 -0.908,-6.8 -5.206,-5.908 C -1.694,-8.919 -1.001,-2.704 0,0" />
        </g>
        <g
           transform="translate(350.5796,184.5283)"
           id="g352">
          <path
             inkscape:connector-curvature="0"
             id="path354"
             style="fill:#edf9fd;fill-opacity:1;fill-rule:nonzero;stroke:none"
             d="m 0,0 c 0,0 0.511,3.057 1.841,6.726 0.069,0.192 0.363,0.668 0.487,0.833 1.463,1.953 3.859,3.165 7.708,2.852 9.911,-0.801 12.083,-14.615 12.083,-14.615 0,0 -10.336,-3.806 -11.059,-3.806 -0.724,0 -10.281,3.741 -10.281,3.741 z" />
        </g>
        <g
           transform="translate(205.9434,471.1567)"
           id="g356">
          <path
             inkscape:connector-curvature="0"
             id="path358"
             style="fill:#bf5867;fill-opacity:1;fill-rule:nonzero;stroke:none"
             d="m 0,0 c 0,0 -2.66,17.026 -34.473,25.093 -31.815,8.065 -52.71,-3.525 -52.71,-3.525 0,0 -48.008,-127.523 14.175,-152.856 62.182,-25.333 52.264,29.128 53.688,32.71 1.424,3.585 10.16,60.491 10.274,61.835 C -8.933,-35.398 0,0 0,0" />
        </g>
        <g
           transform="translate(200.3711,214.7441)"
           id="g360">
          <path
             inkscape:connector-curvature="0"
             id="path362"
             style="fill:#edf9fd;fill-opacity:1;fill-rule:nonzero;stroke:none"
             d="m 0,0 -0.561,8.289 c 0,0 -0.447,3.473 12.659,4.367 C 25.204,13.553 24.42,9.298 24.42,9.298 L 25.316,1.119 18.483,-10.98 c 0,0 -9.746,-3.81 -10.193,-3.697 -0.45,0.113 -7.394,2.466 -7.394,2.466 z" />
        </g>
        <g
           transform="translate(150.4048,255.0645)"
           id="g364">
          <path
             inkscape:connector-curvature="0"
             id="path366"
             style="fill:#ffcd9f;fill-opacity:1;fill-rule:nonzero;stroke:none"
             d="m 0,0 -7.22,-35.279 -18.148,0.84 6.218,37.137 C -19.15,2.698 -4.037,3.69 0,0" />
        </g>
        <g
           transform="translate(199.3496,262.6279)"
           id="g368">
          <path
             inkscape:connector-curvature="0"
             id="path370"
             style="fill:#ffcd9f;fill-opacity:1;fill-rule:nonzero;stroke:none"
             d="m 0,0 3.149,-37.97 h 7.562 c 1.848,0 9.577,1.067 9.577,1.067 L 17.936,0 9.198,1.516 Z" />
        </g>
        <g
           transform="translate(117.5239,410.5039)"
           id="g372">
          <path
             inkscape:connector-curvature="0"
             id="path374"
             style="fill:#ffcd9f;fill-opacity:1;fill-rule:nonzero;stroke:none"
             d="m 0,0 c 0,0 -9.625,-29.916 -11.138,-60.832 0,0 10.922,-3.362 12.266,-19.491 1.344,-16.132 -10.25,-11.763 -11.089,-3.025 -0.841,8.737 -2.353,5.545 -2.353,5.545 0,0 -3.361,-9.41 1.176,-23.356 0,0 1.177,-4.704 -4.201,-5.208 -5.377,-0.505 -7.057,4.367 -7.057,4.367 0,0 -6.217,0.168 -9.074,6.722 0,0 -6.933,3.372 -5.881,19.827 0.896,14.001 8.57,17.98 8.57,17.98 0,0 5.713,44.694 13.073,61.76 5.878,13.629 8.435,4.61 9.106,4.779 0.673,0.168 5.883,-3.361 5.883,-3.361 z" />
        </g>
        <g
           transform="translate(227.0479,420.748)"
           id="g376">
          <path
             inkscape:connector-curvature="0"
             id="path378"
             style="fill:#ffcd9f;fill-opacity:1;fill-rule:nonzero;stroke:none"
             d="m 0,0 c 0,0 4.471,-51.754 8.948,-69.229 0,0 8.51,-8.736 7.502,-22.179 -1.008,-13.442 -12.098,-14.449 -14.787,-3.025 -2.687,11.427 -17.768,31.254 -15.773,32.934 1.995,1.682 1.995,34.614 1.995,36.967 0,2.352 2.353,18.517 3.025,19.003 C -8.418,-5.042 0,0 0,0" />
        </g>
        <g
           transform="translate(229.9434,345.2471)"
           id="g380">
          <path
             inkscape:connector-curvature="0"
             id="path382"
             style="fill:#ffbc67;fill-opacity:1;fill-rule:nonzero;stroke:none"
             d="m 0,0 c 0,0 5.602,-45.481 6.945,-78.191 0,0 -19.266,-10.976 -51.304,-1.346 l -2.465,38.389 -9.186,-42.345 c 0,0 -9.795,-8.528 -29.235,-6.336 -8.45,0.953 -23.862,3.573 -30.807,10.517 0,0 11.201,67.214 12.994,79.312 1.792,12.095 5.825,11.201 5.825,11.201 0,0 31.367,-0.865 34.278,0.015 2.913,0.879 32.486,-6.065 33.606,-6.065 1.121,0 13.524,-3.256 15.459,-2.688 1.935,0.569 15.049,-3.43 15.049,-3.43" />
        </g>
        <g
           transform="translate(187.1528,486.3926)"
           id="g384">
          <path
             inkscape:connector-curvature="0"
             id="path386"
             style="fill:#685c79;fill-opacity:1;fill-rule:nonzero;stroke:none"
             d="m 0,0 23.299,-14.115 c 0,0 15.907,-19.492 24.421,-49.065 0,0 -2.464,-5.601 -9.186,-6.946 0,0 4.033,-34.503 6.722,-71.246 0,0 -9.858,-6.941 -40.776,-7.391 -30.917,-0.449 -63.179,6.721 -69.227,9.857 0,0 10.752,60.919 11.873,64.512 0,0 -13.442,-4.467 -28.453,1.134 -15.01,5.6 -23.075,15.458 -23.075,15.458 0,0 20.835,54.215 40.55,63.85 l 21.729,0.285 7.841,0.103 z" />
        </g>
        <g
           transform="translate(145.0298,492.7251)"
           id="g388">
          <path
             inkscape:connector-curvature="0"
             id="path390"
             style="fill:#da727e;fill-opacity:1;fill-rule:nonzero;stroke:none"
             d="M 0,0 C 0,0 10.309,-18.432 8.068,-44.645 5.829,-70.856 -5.663,-88.561 -13.36,-93.823 l 2.609,13.097 c 0,0 5.153,25.103 5.825,45.716 0.673,20.612 -6.499,34.861 -6.499,34.861 z" />
        </g>
        <g
           transform="translate(198.8271,479.3198)"
           id="g392">
          <path
             inkscape:connector-curvature="0"
             id="path394"
             style="fill:#da727e;fill-opacity:1;fill-rule:nonzero;stroke:none"
             d="m 0,0 c 0,0 23.084,-48.714 28.221,-75.375 0,0 -3.825,37.864 -16.596,68.333 z" />
        </g>
        <g
           transform="translate(183.4551,306.5986)"
           id="g396">
          <path
             inkscape:connector-curvature="0"
             id="path398"
             style="fill:#e29a4b;fill-opacity:1;fill-rule:nonzero;stroke:none"
             d="M 0,0 C 0,0 6.721,6.497 15.011,9.298 15.011,9.298 2.129,-0.223 0,-6.944 Z" />
        </g>
        <g
           transform="translate(128.1172,168.0303)"
           id="g400">
          <path
             inkscape:connector-curvature="0"
             id="path402"
             style="fill:#455c7b;fill-opacity:1;fill-rule:nonzero;stroke:none"
             d="M 0,0 C 14.031,-0.103 22.37,2.688 28.869,7.027 28.564,14.31 26.987,28.104 19.828,38.647 9.635,53.658 0.897,46.377 0.561,46.039 0.225,45.705 -7.168,43.912 -7.168,43.912 l -3.024,-1.568 c 0,0 -8.026,-13.098 -12.342,-32.489 C -19.917,7.084 -12.125,0.089 0,0" />
        </g>
        <g
           transform="translate(129.7974,160.75)"
           id="g404">
          <path
             inkscape:connector-curvature="0"
             id="path406"
             style="fill:#edf9fd;fill-opacity:1;fill-rule:nonzero;stroke:none"
             d="m 0,0 c 20.164,-0.067 27.221,9.297 27.221,9.297 0,0 0.097,1.924 -0.032,5.011 C 20.69,9.968 12.351,7.178 -1.68,7.28 c -12.126,0.089 -19.917,7.084 -22.534,9.856 -0.356,-1.603 -0.691,-3.242 -0.99,-4.925 0,0 4.115,-12.141 25.204,-12.211" />
        </g>
        <g
           transform="translate(116.5801,187.8574)"
           id="g408">
          <path
             inkscape:connector-curvature="0"
             id="path410"
             style="fill:#dddddd;fill-opacity:1;fill-rule:nonzero;stroke:none"
             d="m 0,0 4.592,21.061 c 0,0 9.858,4.591 14.227,3.919 4.37,-0.671 8.738,-3.471 8.738,-3.471 l -2.129,-22.74 c 0,0 -21.172,-1.682 -21.508,-1.682 C 3.584,-2.913 0,0 0,0" />
        </g>
        <g
           transform="translate(153.0981,507.9419)"
           id="g412">
          <path
             inkscape:connector-curvature="0"
             id="path414"
             style="fill:#f2aa75;fill-opacity:1;fill-rule:nonzero;stroke:none"
             d="m 0,0 v -15.109 c 0,0 28.061,-13.106 36.546,-7.393 v 11.425 L 6.386,0 Z" />
        </g>
        <g
           transform="translate(235.9932,580.936)"
           id="g416">
          <path
             inkscape:connector-curvature="0"
             id="path418"
             style="fill:#ffcd9f;fill-opacity:1;fill-rule:nonzero;stroke:none"
             d="m 0,0 c 0,0 1.12,-66.764 -36.743,-84.686 0,0 -12.769,-5.378 -27.78,0 -15.011,5.376 -32.934,19.491 -38.983,38.757 -6.049,19.268 -6.049,12.771 -6.049,12.771 0,0 -7.17,4.706 -3.586,27.109 3.586,22.403 15.909,25.764 17.028,26.884 1.12,1.121 11.202,5.154 13.218,7.17 2.017,2.016 18.371,5.825 20.164,6.946 1.792,1.119 19.266,-4.034 22.852,-4.482 3.585,-0.448 27.557,-15.011 31.141,-16.354 C -5.153,12.77 0,0 0,0" />
        </g>
        <g
           transform="translate(217.79,547.4424)"
           id="g420">
          <path
             inkscape:connector-curvature="0"
             id="path422"
             style="fill:#dd9a64;fill-opacity:1;fill-rule:nonzero;stroke:none"
             d="m 0,0 c 0,0 3.265,-2.482 2.761,-7.187 -0.504,-4.705 -7.298,-5.248 -7.298,-5.248 0,0 8.401,-0.839 9.745,4.706 C 6.553,-2.185 0,0 0,0" />
        </g>
        <g
           transform="translate(166.0928,607.5972)"
           id="g424">
          <path
             inkscape:connector-curvature="0"
             id="path426"
             style="fill:#a75265;fill-opacity:1;fill-rule:nonzero;stroke:none"
             d="m 0,0 c 0,0 6.945,-10.979 25.764,-14.339 18.82,-3.361 47.049,-12.77 50.409,-25.765 0,0 10.313,23.525 -6.27,38.536 0,0 -3.39,22.177 -40.554,33.157 -29.573,8.738 -39.207,-7.393 -39.207,-7.393 0,0 -47.721,-0.897 -41.447,-64.3 0,0 0.287,10.28 5.825,14.787 0,0 -10.817,-39.184 20.164,-67.436 0,0 -11.651,22.405 -8.514,32.598 0,0 -12.994,6.386 -7.394,23.189 5.601,16.802 19.715,5.823 18.147,-7.618 l 4.706,-0.448 c 0,0 2.912,10.548 7.393,16.476 C -6.498,-22.628 1.121,-13.667 0,0" />
        </g>
        <g
           transform="translate(189.2808,566.0376)"
           id="g428">
          <path
             inkscape:connector-curvature="0"
             id="path430"
             style="fill:#3e3947;fill-opacity:1;fill-rule:nonzero;stroke:none"
             d="m 0,0 c 0,-3.403 -1.932,-6.162 -4.314,-6.162 -2.381,0 -4.312,2.759 -4.312,6.162 0,3.402 1.931,6.161 4.312,6.161 C -1.932,6.161 0,3.402 0,0" />
        </g>
        <g
           transform="translate(223.4937,556.4678)"
           id="g432">
          <path
             inkscape:connector-curvature="0"
             id="path434"
             style="fill:#3e3947;fill-opacity:1;fill-rule:nonzero;stroke:none"
             d="m 0,0 c 0,-2.996 -1.621,-5.423 -3.621,-5.423 -1.998,0 -3.618,2.427 -3.618,5.423 0,2.996 1.62,5.423 3.618,5.423 C -1.621,5.423 0,2.996 0,0" />
        </g>
        <g
           transform="translate(190.1768,587.0977)"
           id="g436">
          <path
             inkscape:connector-curvature="0"
             id="path438"
             style="fill:#a75265;fill-opacity:1;fill-rule:nonzero;stroke:none"
             d="m 0,0 v -4.929 c 0,0 -5.152,6.497 -11.985,1.904 0,0 4.144,7.394 11.985,3.025" />
        </g>
        <g
           transform="translate(218.2158,577.0156)"
           id="g440">
          <path
             inkscape:connector-curvature="0"
             id="path442"
             style="fill:#a75265;fill-opacity:1;fill-rule:nonzero;stroke:none"
             d="m 0,0 v -3.902 c 0,0 4.965,1.283 6.798,-2.036 C 6.798,-5.938 7.204,0 0,0" />
        </g>
        <g
           transform="translate(189.6445,505.1826)"
           id="g444">
          <path
             inkscape:connector-curvature="0"
             id="path446"
             style="fill:#dd9a64;fill-opacity:1;fill-rule:nonzero;stroke:none"
             d="m 0,0 c 0,0 -7.646,0.42 -11.594,4.621 0,0 4.369,-8.065 11.594,-4.621" />
        </g>
        <g
           transform="translate(174.6064,536.9399)"
           id="g448">
          <path
             inkscape:connector-curvature="0"
             id="path450"
             style="fill:#fdf5ed;fill-opacity:1;fill-rule:nonzero;stroke:none"
             d="m 0,0 c 0,0 -0.67,-3.243 -0.178,-7.422 4.332,-3.042 15.882,-10.028 29.666,-9.301 1.376,2.946 1.849,5.55 1.849,5.55 0,0 -19.659,2.52 -31.337,11.173" />
        </g>
        <g
           transform="translate(204.0942,520.2168)"
           id="g452">
          <path
             inkscape:connector-curvature="0"
             id="path454"
             style="fill:#9e005d;fill-opacity:1;fill-rule:nonzero;stroke:none"
             d="m 0,0 c -2.483,-0.131 -4.889,-0.005 -7.197,0.297 1.129,-1.722 2.195,-4.15 1.859,-6.9 C -2.817,-4.964 -1.111,-2.375 0,0" />
        </g>
        <g
           transform="translate(196.8975,520.5137)"
           id="g456">
          <path
             inkscape:connector-curvature="0"
             id="path458"
             style="fill:#da727e;fill-opacity:1;fill-rule:nonzero;stroke:none"
             d="m 0,0 c -10.51,1.373 -18.917,6.51 -22.469,9.004 0.716,-6.091 3.898,-14.172 15.216,-17.109 3.84,-0.997 6.814,-0.29 9.112,1.206 C 2.194,-4.15 1.129,-1.722 0,0" />
        </g>
        <g
           transform="translate(147.9448,204.8867)"
           id="g460">
          <path
             inkscape:connector-curvature="0"
             id="path462"
             style="fill:#edf9fd;fill-opacity:1;fill-rule:nonzero;stroke:none"
             d="m 0,0 -1.007,13.891 c 0,0 -14.003,13.757 -28.005,2.798 0,0 -1.008,-2.797 -1.008,-5.263 V 0 c 0,0 13.105,15.012 30.02,0" />
        </g>
        <g
           transform="translate(228.2632,172.8486)"
           id="g464">
          <path
             inkscape:connector-curvature="0"
             id="path466"
             style="fill:#edf9fd;fill-opacity:1;fill-rule:nonzero;stroke:none"
             d="M 0,0 C 31.926,0.561 38.423,9.185 38.423,9.185 37.946,10.97 37.33,12.661 36.617,14.279 34.47,12.315 23.729,6.159 1.838,4.703 -20.07,3.249 -34.203,7.861 -34.203,7.861 c 0.294,-2.638 0.597,-4.278 0.597,-4.278 0,0 1.681,-4.144 33.606,-3.583" />
        </g>
        <g
           transform="translate(236.6274,195.6572)"
           id="g468">
          <path
             inkscape:connector-curvature="0"
             id="path470"
             style="fill:#455c7b;fill-opacity:1;fill-rule:nonzero;stroke:none"
             d="m 0,0 c -6.301,7.17 -15.627,11.391 -19.832,13.025 -0.795,-1.418 -1.078,-2.452 -1.078,-2.452 -5.411,-1.563 -10.978,3.583 -12.434,6.16 -1.457,2.577 -2.912,2.354 -2.912,2.354 -8,-8.845 -7.202,-26.04 -6.311,-34.034 0,0 14.132,-4.613 36.041,-3.158 0.691,0.047 1.337,0.11 2.005,0.166 -0.219,0.292 -0.371,0.507 -0.371,0.507 C -4.566,-9.885 -2.562,-4.222 0,0" />
        </g>
        <g
           transform="translate(236.6274,195.6572)"
           id="g472">
          <path
             inkscape:connector-curvature="0"
             id="path474"
             style="fill:#dddddd;fill-opacity:1;fill-rule:nonzero;stroke:none"
             d="m 0,0 c 3.664,6.037 8.47,9.118 11.175,10.467 -10.88,7.137 -22.115,9.739 -22.115,9.739 -4.982,-1.592 -7.609,-4.891 -8.892,-7.181 C -15.627,11.391 -6.301,7.17 0,0" />
        </g>
        <g
           transform="translate(251.9849,203.123)"
           id="g476">
          <path
             inkscape:connector-curvature="0"
             id="path478"
             style="fill:#edf9fd;fill-opacity:1;fill-rule:nonzero;stroke:none"
             d="m 0,0 c -0.124,-1.603 -0.239,-2.845 -0.309,-3.058 -0.225,-0.675 -2.913,-4.925 -2.913,-4.925 0,0 -2.24,-13.107 -10.193,-1.906 -0.602,0.848 -1.259,1.648 -1.942,2.423 -2.562,-4.222 -4.567,-9.885 -4.892,-17.431 0,0 0.151,-0.216 0.37,-0.508 20.522,1.686 30.694,7.509 32.775,9.41 C 9.965,-9.348 5.205,-4.098 0,0" />
        </g>
        <g
           transform="translate(236.6274,195.6572)"
           id="g480">
          <path
             inkscape:connector-curvature="0"
             id="path482"
             style="fill:#edf9fd;fill-opacity:1;fill-rule:nonzero;stroke:none"
             d="m 0,0 c 0.684,-0.775 1.34,-1.575 1.942,-2.423 7.953,-11.201 10.194,1.905 10.194,1.905 0,0 2.688,4.25 2.912,4.926 0.07,0.213 0.185,1.455 0.309,3.058 -1.371,1.081 -2.774,2.077 -4.182,3.001 C 8.47,9.118 3.664,6.037 0,0" />
        </g>
        <g
           transform="translate(185.0435,569.0176)"
           id="g484">
          <path
             inkscape:connector-curvature="0"
             id="path486"
             style="fill:#ffffff;fill-opacity:1;fill-rule:nonzero;stroke:none"
             d="m 0,0 c 0,-0.939 -0.645,-1.7 -1.439,-1.7 -0.794,0 -1.438,0.761 -1.438,1.7 0,0.937 0.644,1.698 1.438,1.698 C -0.645,1.698 0,0.937 0,0" />
        </g>
        <g
           transform="translate(219.6865,559.3491)"
           id="g488">
          <path
             inkscape:connector-curvature="0"
             id="path490"
             style="fill:#ffffff;fill-opacity:1;fill-rule:nonzero;stroke:none"
             d="m 0,0 c 0,-0.797 -0.497,-1.442 -1.11,-1.442 -0.615,0 -1.113,0.645 -1.113,1.442 0,0.796 0.498,1.442 1.113,1.442 C -0.497,1.442 0,0.796 0,0" />
        </g>
        <g
           transform="translate(108.6274,173.6309)"
           id="g492">
          <path
             inkscape:connector-curvature="0"
             id="path494"
             style="fill:#edf9fd;fill-opacity:1;fill-rule:nonzero;stroke:none"
             d="m 0,0 c 0,0 -0.449,18.606 20.05,18.597 21.852,-0.014 24.533,-21.06 24.533,-21.06 0,0 -8.402,-3.361 -9.521,-3.697 C 33.942,-6.494 19.38,-8.514 17.475,-7.952 15.57,-7.392 6.048,-5.489 5.152,-4.927 4.256,-4.367 0,0 0,0" />
        </g>
        <g
           transform="translate(537.7822,333.5576)"
           id="g496">
          <path
             inkscape:connector-curvature="0"
             id="path498"
             style="fill:#efb789;fill-opacity:1;fill-rule:nonzero;stroke:none"
             d="m 0,0 c 0,0 -4.705,-2.104 -7.508,-3.804 -3.056,-1.855 5.725,-7.128 13.516,-1.801 9.81,6.707 2.303,8.209 2.303,8.209 L 3.705,2.202 Z" />
        </g>
        <g
           transform="translate(583.333,197.9092)"
           id="g500">
          <path
             inkscape:connector-curvature="0"
             id="path502"
             style="fill:#a75265;fill-opacity:1;fill-rule:nonzero;stroke:none"
             d="m 0,0 c 0,0 -2.203,-4.003 -4.705,-6.406 -2.502,-2.403 -11.113,-7.009 -10.111,-13.115 1.002,-6.106 17.818,-7.809 27.129,-2.102 0,0 4.908,3.904 6.107,6.507 1.201,2.603 7.008,7.008 7.008,7.008 0,0 -1.502,8.007 -7.008,9.91 -5.506,1.903 -8.91,1.602 -8.91,1.602 z" />
        </g>
        <g
           transform="translate(684.0439,220.4326)"
           id="g504">
          <path
             inkscape:connector-curvature="0"
             id="path506"
             style="fill:#a75265;fill-opacity:1;fill-rule:nonzero;stroke:none"
             d="m 0,0 c 0,0 4.104,-4.704 5.605,-10.911 1.502,-6.207 5.307,-13.415 11.915,-11.613 6.607,1.801 11.611,9.211 9.91,17.718 -1.703,8.51 -6.207,16.919 -7.207,19.322 -1.002,2.402 -3.506,4.964 -3.506,4.964 0,0 -5.906,1.644 -10.211,-2.461 C 2.201,12.915 2.402,12.314 2.402,12.314 L 0.902,6.009 -2.504,2.003 Z" />
        </g>
        <g
           transform="translate(581.0303,261.0801)"
           id="g508">
          <path
             inkscape:connector-curvature="0"
             id="path510"
             style="fill:#ffcd9f;fill-opacity:1;fill-rule:nonzero;stroke:none"
             d="m 0,0 c 0,0 -1.602,-29.835 3.404,-53.461 0,0 6.807,-3.202 11.211,2.605 0,0 -4.469,32.851 -4.336,44.856 0.133,12.005 -3.093,8.201 -3.093,8.201 z" />
        </g>
        <g
           transform="translate(641.2959,256.4746)"
           id="g512">
          <path
             inkscape:connector-curvature="0"
             id="path514"
             style="fill:#ffcd9f;fill-opacity:1;fill-rule:nonzero;stroke:none"
             d="m 0,0 c 0,0 10.613,-23.026 33.438,-30.033 0,0 5.806,1.199 3.605,10.011 0,0 -19.34,4.338 -26.09,22.292 C 4.207,20.222 2.002,5.005 2.002,5.005 Z" />
        </g>
        <g
           transform="translate(711.8232,301.6758)"
           id="g516">
          <path
             inkscape:connector-curvature="0"
             id="path518"
             style="fill:#e5a576;fill-opacity:1;fill-rule:nonzero;stroke:none"
             d="m 0,0 c 0,0 1.502,-6.459 2.553,-8.862 0,0 0.601,-4.505 -3.604,-3.605 -4.205,0.902 -4.205,2.404 -4.205,2.404 0,0 -5.256,0.15 -6.156,4.655 -0.902,4.505 1.051,10.361 -2.402,12.163 -3.456,1.802 -7.36,1.351 -8.561,-0.601 -1.201,-1.952 -2.402,8.11 -1.803,8.86 0.602,0.751 2.688,4.205 3.371,5.105 0.686,0.902 12.998,-4.955 12.998,-4.955 l 3.754,-8.709 z" />
        </g>
        <g
           transform="translate(709.8721,310.834)"
           id="g520">
          <path
             inkscape:connector-curvature="0"
             id="path522"
             style="fill:#efb789;fill-opacity:1;fill-rule:nonzero;stroke:none"
             d="M 0,0 C 0,0 2.789,-4.806 5.449,-7.509 6.975,-9.06 4.957,-11.201 2.277,-11.697 0.285,-12.065 -2.068,-11.525 -3.605,-9.158 -7.209,-3.604 -7.66,0 -7.66,0 c 0,0 -2.403,6.156 -6.756,6.606 -4.355,0.452 0,4.355 0,4.355 L -9.01,9.61 0,3.753 Z" />
        </g>
        <g
           transform="translate(579.5732,505.7627)"
           id="g524">
          <path
             inkscape:connector-curvature="0"
             id="path526"
             style="fill:#af224e;fill-opacity:1;fill-rule:nonzero;stroke:none"
             d="m 0,0 c 0,0 -13.76,2.788 -15.961,15.402 -2.203,12.614 10.49,11.013 15.756,22.825 5.266,11.813 23.887,55.861 66.535,42.046 0,0 18.619,8.008 37.24,-4.605 18.619,-12.614 15.817,-43.648 25.428,-60.066 9.611,-16.418 21.223,-18.22 18.82,-33.237 -2.404,-15.016 -23.025,-24.226 -19.22,-39.042 3.804,-14.817 15.214,-14.016 14.214,-34.439 -1.001,-20.422 -23.162,-22.824 -22.591,-35.037 0.566,-12.215 -2.637,-22.826 -12.448,-24.828 -9.81,-2.003 0,44.047 0,44.047 0,0 -6.205,15.018 -6.205,15.619 0,0.6 -13.414,14.615 -14.216,14.815 -0.801,0.201 -13.414,7.008 -15.217,7.008 -1.803,0 -9.211,2.203 -9.211,2.203 0,0 -27.629,-4.404 -29.832,-4.806 -2.201,-0.401 -12.516,-9.276 -12.516,-9.276 L 2.859,-99.525 c 0,0 -8.209,3.405 -8.009,15.017 0.201,11.613 5.207,9.41 -1,19.22 -6.207,9.813 12.816,16.017 9.41,39.044 -3.406,23.025 0.601,19.421 0.601,19.421 z" />
        </g>
        <g
           transform="translate(595.3623,419.3408)"
           id="g528">
          <path
             inkscape:connector-curvature="0"
             id="path530"
             style="fill:#6d0323;fill-opacity:1;fill-rule:nonzero;stroke:none"
             d="m 0,0 c 0,0 1.285,12.816 9.994,17.927 8.709,5.11 59.299,19.826 85.66,-14.712 0,0 14.233,-58.358 -24.3,-91.947 0,0 -9.903,-10.554 -25.42,-5.554 -15.518,4.999 -26.93,22.119 -26.93,22.119 l -4.85,18.02 v 7.808 l -9.265,8.709 -4.606,25.229 z" />
        </g>
        <g
           transform="translate(677.2725,372.0918)"
           id="g532">
          <path
             inkscape:connector-curvature="0"
             id="path534"
             style="fill:#ffcd9f;fill-opacity:1;fill-rule:nonzero;stroke:none"
             d="m 0,0 c 0,0 10.674,-29.724 19.084,-44.439 0,0 9.76,-8.861 15.617,-10.963 5.856,-2.103 3.303,-5.105 -2.101,-5.856 -5.407,-0.752 -10.813,5.555 -10.813,5.555 0,0 -4.055,1.503 -5.557,-2.702 -1.5,-4.205 -3.453,-10.662 -8.558,-11.113 -5.106,-0.45 -6.008,3.304 -4.805,4.805 1.199,1.503 5.856,6.008 5.254,9.762 -0.6,3.754 -1.201,7.358 -0.75,8.408 0,0 -12.764,32.12 -16.068,44.592 C -12,10.52 -9.898,6.466 -9.898,6.466 l 7.209,-1.352 z" />
        </g>
        <g
           transform="translate(580.124,386.9131)"
           id="g536">
          <path
             inkscape:connector-curvature="0"
             id="path538"
             style="fill:#ffcd9f;fill-opacity:1;fill-rule:nonzero;stroke:none"
             d="m 0,0 c 0,0 -15.912,-33.335 -31.729,-43.145 0,0 -6.605,-3.203 -15.216,-3.003 -8.61,0.201 -12.414,3.004 -12.815,-2 -0.4,-5.007 7.008,-8.81 13.414,-7.208 6.408,1.6 8.61,3.002 9.412,1.6 0.801,-1.402 1.202,-3.002 0.6,-5.205 -0.6,-2.203 -1.801,-10.411 4.404,-10.811 6.207,-0.402 1.08,2.602 2.043,7.006 0.961,4.406 4.565,4.405 6.768,7.608 2.201,3.205 2,8.41 2.201,9.211 0.201,0.801 21.252,22.573 24.643,33.211 C 7.113,-2.098 9.916,0 9.916,0 L 0.705,5.213 Z" />
        </g>
        <g
           transform="translate(572.9775,318.8096)"
           id="g540">
          <path
             inkscape:connector-curvature="0"
             id="path542"
             style="fill:#735360;fill-opacity:1;fill-rule:nonzero;stroke:none"
             d="m 0,0 c 0,0 -6.363,-29.499 -10.969,-42.914 0,0 15.215,-23.826 51.657,-24.628 36.441,-0.801 60.066,20.223 60.066,20.223 0,0 -18.529,21.398 -22.291,37.386 -3.764,15.988 -23.559,7.063 -23.559,7.063 0,0 -28.633,-3.003 -29.834,-2.803 C 23.869,-5.474 6.85,-2.471 6.049,-2.271 5.248,-2.069 0,0 0,0" />
        </g>
        <g
           transform="translate(645.5361,442.8984)"
           id="g544">
          <path
             inkscape:connector-curvature="0"
             id="path546"
             style="fill:#e2a879;fill-opacity:1;fill-rule:nonzero;stroke:none"
             d="m 0,0 -1.664,-8.913 -0.174,-0.918 c 0,0 -14.566,-6.806 -17.795,-5.406 -3.228,1.401 -1.871,4.205 -1.871,4.205 0,0 2.85,5.606 3.25,8.21 0.4,2.602 4.004,1.642 4.805,2.822 0.801,1.181 7.008,1.782 8.408,1.983 C -3.639,2.183 0,0 0,0" />
        </g>
        <g
           transform="translate(582.5303,526.1699)"
           id="g548">
          <path
             inkscape:connector-curvature="0"
             id="path550"
             style="fill:#ffcd9f;fill-opacity:1;fill-rule:nonzero;stroke:none"
             d="m 0,0 c 0,0 -20.121,-75.983 41.146,-88.898 0,0 23.426,-0.901 41.747,21.924 18.32,22.825 21.923,51.657 21.923,51.657 0,0 -8.711,16.818 -11.113,19.221 C 91.301,6.307 55.563,23.726 53.76,25.528 51.959,27.33 40.547,30.033 35.141,29.432 29.732,28.832 19.822,26.729 17.721,25.228 15.619,23.726 8.41,15.017 8.41,15.017 Z" />
        </g>
        <g
           transform="translate(577.2256,520.5635)"
           id="g552">
          <path
             inkscape:connector-curvature="0"
             id="path554"
             style="fill:#af224e;fill-opacity:1;fill-rule:nonzero;stroke:none"
             d="m 0,0 c 0,0 19.693,15.155 26.301,32.173 0,0 6.01,-14.267 25.031,-17.07 C 70.354,12.3 88.076,2.91 93.774,-14.591 c 4.5,-13.821 0.92,-23.865 -4.285,-34.076 -5.207,-10.212 -6.406,-13.723 0,-22.532 6.407,-8.81 5.034,-10.989 5.034,-10.989 0,0 10.692,-4.907 19.268,-15.82 0.508,-0.644 0.656,-3.215 0.656,-3.215 0,0 4.084,-0.889 5.084,0.712 1.002,1.602 -1.601,15.609 -1.601,17.215 0,1.607 4.006,56.147 4.605,59.21 0.6,3.064 -7.408,25.689 -9.81,31.294 -2.403,5.606 -10.813,17.62 -19.022,23.626 -8.209,6.006 -14.816,9.21 -21.023,10.812 -6.205,1.602 -6.805,0.6 -12.412,2.603 C 54.66,46.251 18.221,40.044 17.621,39.443 17.02,38.843 9.813,31.635 9.813,30.834 9.813,30.033 3.484,12.814 2.143,10.813 0.801,8.81 0,0 0,0" />
        </g>
        <g
           transform="translate(638.4814,503.1777)"
           id="g556">
          <path
             inkscape:connector-curvature="0"
             id="path558"
             style="fill:#3e3947;fill-opacity:1;fill-rule:nonzero;stroke:none"
             d="m 0,0 c -0.367,-3.214 -2.695,-5.587 -5.199,-5.302 -2.504,0.286 -4.237,3.122 -3.869,6.336 0.365,3.214 2.691,5.587 5.197,5.302 C -1.367,6.05 0.365,3.214 0,0" />
        </g>
        <g
           transform="translate(598.9248,505.561)"
           id="g560">
          <path
             inkscape:connector-curvature="0"
             id="path562"
             style="fill:#3e3947;fill-opacity:1;fill-rule:nonzero;stroke:none"
             d="m 0,0 c -0.338,-2.969 -2.229,-5.191 -4.225,-4.964 -1.994,0.228 -3.333,2.818 -2.994,5.787 0.336,2.968 2.228,5.19 4.223,4.964 C -1.002,5.559 0.34,2.968 0,0" />
        </g>
        <g
           transform="translate(628.5576,521.9648)"
           id="g564">
          <path
             inkscape:connector-curvature="0"
             id="path566"
             style="fill:#af224e;fill-opacity:1;fill-rule:nonzero;stroke:none"
             d="m 0,0 c 0,0 1.254,3.753 3.379,5.707 0,0 8.408,3.153 11.262,-5.707 C 14.641,0 7.32,5.932 0,0" />
        </g>
        <g
           transform="translate(601.2207,522.1641)"
           id="g568">
          <path
             inkscape:connector-curvature="0"
             id="path570"
             style="fill:#af224e;fill-opacity:1;fill-rule:nonzero;stroke:none"
             d="m 0,0 c 0,0 0.074,3.493 -1.828,6.485 0,0 -5.512,1.522 -7.527,-4.933 0,0 5.08,4.798 9.355,-1.552" />
        </g>
        <g
           transform="translate(597.7725,493.1338)"
           id="g572">
          <path
             inkscape:connector-curvature="0"
             id="path574"
             style="fill:#e2a879;fill-opacity:1;fill-rule:nonzero;stroke:none"
             d="m 0,0 c 0,0 -6.531,-5.632 1.354,-11.188 0,0 -7.135,1.427 -7.51,5.256 C -6.531,-2.103 -0.676,0.075 0,0" />
        </g>
        <g
           transform="translate(619.0205,451.4878)"
           id="g576">
          <path
             inkscape:connector-curvature="0"
             id="path578"
             style="fill:#e2a879;fill-opacity:1;fill-rule:nonzero;stroke:none"
             d="M 0,0 C 0,0 8.76,-3.103 13.766,2.903 13.766,2.903 10.762,-6.107 0,0" />
        </g>
        <g
           transform="translate(643.8721,433.9858)"
           id="g580">
          <path
             inkscape:connector-curvature="0"
             id="path582"
             style="fill:#f1b0b0;fill-opacity:1;fill-rule:nonzero;stroke:none"
             d="m 0,0 c 0,0 15.094,-8.877 26.957,-11.129 0,0 8.236,-28.223 18.619,-37.841 0,0 -8.558,-21.324 -31.084,-12.915 0,0 -1.652,10.362 -2.853,12.313 0,0 -10.666,-10.061 -11.639,-30.333 -0.975,-20.272 6.385,-38.593 10.287,-43.848 0,0 -22.824,-13.064 -53.008,-6.908 -18.599,3.794 -25.566,10.725 -28.174,15.485 -1.625,2.965 -1.558,5.088 -1.558,5.088 0,0 13.064,38.141 13.064,59.615 0,0 -9.759,5.257 -10.211,16.219 0,0 13.401,15.62 16.069,19.609 4.052,6.068 28.926,9.938 34.179,13.519 5.254,3.581 10.122,0.508 10.122,0.508 z" />
        </g>
        <g
           transform="translate(649.2197,431.085)"
           id="g584">
          <path
             inkscape:connector-curvature="0"
             id="path586"
             style="fill:#a75265;fill-opacity:1;fill-rule:nonzero;stroke:none"
             d="m 0,0 c 0,0 -10.523,-11.431 -12.729,-40.063 -2.203,-28.632 7.346,-37.854 7.346,-37.854 0,0 1.088,14.936 5.182,21.686 0,0 -4.219,33.312 9.847,51.769 0,0 -8.605,3.922 -9.646,4.462" />
        </g>
        <g
           transform="translate(598.8662,424.3921)"
           id="g588">
          <path
             inkscape:connector-curvature="0"
             id="path590"
             style="fill:#a75265;fill-opacity:1;fill-rule:nonzero;stroke:none"
             d="m 0,0 c 0,0 -12.424,-31.243 -14.615,-46.253 l 0.232,5.374 c 0,0 3.963,29.678 9.49,38.716 z" />
        </g>
        <g
           transform="translate(584.6338,210.4229)"
           id="g592">
          <path
             inkscape:connector-curvature="0"
             id="path594"
             style="fill:#e1f8ff;fill-opacity:1;fill-rule:nonzero;stroke:none"
             d="m 0,0 c 0,0 -3.504,-1.702 -1.301,-12.514 0,0 5.207,0.603 9.51,-1.099 4.305,-1.703 8.811,1.401 8.91,1.801 0,0 -0.656,13.193 -6.385,13.704 -5.728,0.511 -7.152,0 -7.152,0 z" />
        </g>
        <g
           transform="translate(672.6377,227.1406)"
           id="g596">
          <path
             inkscape:connector-curvature="0"
             id="path598"
             style="fill:#e1f8ff;fill-opacity:1;fill-rule:nonzero;stroke:none"
             d="m 0,0 c 0,0 2.197,-6.008 11.406,-6.708 0,0 -0.601,3.404 1.801,5.307 2.404,1.901 7.508,8.009 4.705,11.712 0,0 -6.205,2.904 -10.41,2.404 C 3.297,12.213 1.695,7.809 1.695,7.809 Z" />
        </g>
        <g
           transform="translate(614.9111,466.376)"
           id="g600">
          <path
             inkscape:connector-curvature="0"
             id="path602"
             style="fill:#9e005d;fill-opacity:1;fill-rule:nonzero;stroke:none"
             d="m 0,0 c -5.16,0.218 -9.156,1.423 -11.385,2.273 1.188,-2.748 3.201,-6.242 6.448,-8.802 C -4.043,-3.47 -1.906,-1.353 0,0" />
        </g>
        <g
           transform="translate(614.9111,466.376)"
           id="g604">
          <path
             inkscape:connector-curvature="0"
             id="path606"
             style="fill:#da727e;fill-opacity:1;fill-rule:nonzero;stroke:none"
             d="m 0,0 c -1.906,-1.353 -4.043,-3.47 -4.937,-6.529 2.726,-2.149 6.31,-3.638 10.999,-3.453 9.626,0.377 13.083,8.58 14.323,14.626 C 12.725,0.717 5.664,-0.24 0,0" />
        </g>
        <g
           transform="translate(618.4717,468.3062)"
           id="g608">
          <path
             inkscape:connector-curvature="0"
             id="path610"
             style="fill:#ffffff;fill-opacity:1;fill-rule:nonzero;stroke:none"
             d="m 0,0 17.391,6.56 c 0.14,1.554 0.127,2.55 0.127,2.55 C 1.803,-0.2 -16.418,4.705 -16.418,4.705 c 0,0 0.4,-1.877 1.473,-4.362 2.228,-0.85 6.224,-2.055 11.384,-2.273 C -1.668,-0.588 0,0 0,0" />
        </g>
        <g
           transform="translate(618.4717,468.3062)"
           id="g612">
          <path
             inkscape:connector-curvature="0"
             id="path614"
             style="fill:#ffffff;fill-opacity:1;fill-rule:nonzero;stroke:none"
             d="m 0,0 c 0,0 -1.668,-0.588 -3.561,-1.93 5.665,-0.24 12.725,0.717 20.385,4.644 0.297,1.453 0.469,2.781 0.567,3.846 z" />
        </g>
        <g
           transform="translate(376.1074,498.5625)"
           id="g616">
          <path
             inkscape:connector-curvature="0"
             id="path618"
             style="fill:#ffffff;fill-opacity:1;fill-rule:nonzero;stroke:none"
             d="m 0,0 c 0,-0.897 -0.644,-1.625 -1.437,-1.625 -0.794,0 -1.438,0.728 -1.438,1.625 0,0.897 0.644,1.625 1.438,1.625 C -0.644,1.625 0,0.897 0,0" />
        </g>
        <g
           transform="translate(426.2861,498.5625)"
           id="g620">
          <path
             inkscape:connector-curvature="0"
             id="path622"
             style="fill:#ffffff;fill-opacity:1;fill-rule:nonzero;stroke:none"
             d="m 0,0 c 0,-0.897 -0.644,-1.625 -1.437,-1.625 -0.794,0 -1.438,0.728 -1.438,1.625 0,0.897 0.644,1.625 1.438,1.625 C -0.644,1.625 0,0.897 0,0" />
        </g>
        <g
           transform="translate(595.3623,508.9399)"
           id="g624">
          <path
             inkscape:connector-curvature="0"
             id="path626"
             style="fill:#ffffff;fill-opacity:1;fill-rule:nonzero;stroke:none"
             d="m 0,0 c 0,-0.767 -0.493,-1.389 -1.104,-1.389 -0.608,0 -1.101,0.622 -1.101,1.389 0,0.768 0.493,1.39 1.101,1.39 C -0.493,1.39 0,0.768 0,0" />
        </g>
        <g
           transform="translate(633.3574,506.7495)"
           id="g628">
          <path
             inkscape:connector-curvature="0"
             id="path630"
             style="fill:#ffffff;fill-opacity:1;fill-rule:nonzero;stroke:none"
             d="m 0,0 c 0,-0.767 -0.493,-1.389 -1.104,-1.389 -0.608,0 -1.101,0.622 -1.101,1.389 0,0.768 0.493,1.39 1.101,1.39 C -0.493,1.39 0,0.768 0,0" />
        </g>
      </g>
    </g>
  </g>
</svg>
