<?xml version="1.0" encoding="UTF-8" standalone="no"?>
<svg
   xmlns:dc="http://purl.org/dc/elements/1.1/"
   xmlns:cc="http://creativecommons.org/ns#"
   xmlns:rdf="http://www.w3.org/1999/02/22-rdf-syntax-ns#"
   xmlns:svg="http://www.w3.org/2000/svg"
   xmlns="http://www.w3.org/2000/svg"
   xmlns:xlink="http://www.w3.org/1999/xlink"
   xmlns:sodipodi="http://sodipodi.sourceforge.net/DTD/sodipodi-0.dtd"
   xmlns:inkscape="http://www.inkscape.org/namespaces/inkscape"
   id="svg2"
   height="328.56"
   width="1e3"
   version="1.1"
   sodipodi:docname="idete.svg"
   inkscape:version="0.92.4 (5da689c313, 2019-01-14)">
  <metadata
     id="metadata13">
    <rdf:RDF>
      <cc:Work
         rdf:about="">
        <dc:format>image/svg+xml</dc:format>
        <dc:type
           rdf:resource="http://purl.org/dc/dcmitype/StillImage" />
        <dc:title></dc:title>
      </cc:Work>
    </rdf:RDF>
  </metadata>
  <defs
     id="defs11"><linearGradient
   x1="0"
   y1="0"
   x2="1"
   y2="0"
   gradientUnits="userSpaceOnUse"
   gradientTransform="matrix(2363.58,-2363.58,-2363.58,-2363.58,2119.14,5507.41)"
   spreadMethod="pad"
   id="linearGradient4619">
  <stop
     style="stop-opacity:0.80588233;stop-color:#c647b3"
     offset="0"
     id="stop4621" />
  <stop
     style="stop-opacity:1;stop-color:#3c2b83"
     offset="0.995049"
     id="stop4623" />
  <stop
     style="stop-opacity:1;stop-color:#3c2b83"
     offset="1"
     id="stop4625" />
</linearGradient>
<linearGradient
   x1="0"
   y1="0"
   x2="1"
   y2="0"
   gradientUnits="userSpaceOnUse"
   gradientTransform="matrix(2363.58,-2363.58,-2363.58,-2363.58,2119.14,5507.41)"
   spreadMethod="pad"
   id="linearGradient4574">
  <stop
     style="stop-opacity:1;stop-color:#5a7fff"
     offset="0"
     id="stop4576" />
  <stop
     style="stop-opacity:1;stop-color:#3d2c85"
     offset="0.995049"
     id="stop4578" />
  <stop
     style="stop-opacity:1;stop-color:#3c2b83"
     offset="1"
     id="stop4580" />
</linearGradient>
<linearGradient
   id="linearGradient4551"
   spreadMethod="pad"
   gradientTransform="matrix(1577.3,1577.3,1577.3,-1577.3,4100.73,4100.24)"
   gradientUnits="userSpaceOnUse"
   y2="0"
   x2="1"
   y1="0"
   x1="0">
  <stop
     id="stop4553"
     offset="0"
     style="stop-opacity:1;stop-color:#db1c5c" />
  <stop
     style="stop-color:#e91b59;stop-opacity:1"
     offset="0.36773011"
     id="stop4557" />
  <stop
     id="stop4555"
     offset="1"
     style="stop-opacity:1;stop-color:#8d1f6d" />
</linearGradient>
<linearGradient
   x1="0"
   y1="0"
   x2="1"
   y2="0"
   gradientUnits="userSpaceOnUse"
   gradientTransform="matrix(2363.58,-2363.58,-2363.58,-2363.58,2119.14,5507.41)"
   spreadMethod="pad"
   id="linearGradient4519">
  <stop
     style="stop-opacity:1;stop-color:#5b4488"
     offset="0"
     id="stop4521" />
  <stop
     style="stop-opacity:1;stop-color:#574489"
     offset="0.995049"
     id="stop4523" />
  <stop
     style="stop-opacity:1;stop-color:#d71c5d"
     offset="1"
     id="stop4525" />
</linearGradient>
<linearGradient
   x1="0"
   y1="0"
   x2="1"
   y2="0"
   gradientUnits="userSpaceOnUse"
   gradientTransform="matrix(1577.3,1577.3,1577.3,-1577.3,4100.73,4100.24)"
   spreadMethod="pad"
   id="linearGradient4832">
  <stop
     style="stop-opacity:1;stop-color:#b4336e"
     offset="0"
     id="stop4834" />
  <stop
     style="stop-opacity:1;stop-color:#3e4990"
     offset="1"
     id="stop4836" />
</linearGradient>
<linearGradient
   x1="0"
   y1="0"
   x2="1"
   y2="0"
   gradientUnits="userSpaceOnUse"
   gradientTransform="matrix(1577.3,1577.3,1577.3,-1577.3,4100.73,4100.24)"
   spreadMethod="pad"
   id="linearGradient4652">
  <stop
     style="stop-opacity:1;stop-color:#515117"
     offset="0"
     id="stop4654" />
  <stop
     style="stop-opacity:1;stop-color:#eeff58"
     offset="1"
     id="stop4656" />
</linearGradient>
<clipPath
   id="clipPath20"
   clipPathUnits="userSpaceOnUse">
  <path
     inkscape:connector-curvature="0"
     id="path22"
     d="m 4000,1443.29 c -1681.62,0 -3044.848,203.45 -3044.848,454.42 0,250.98 1363.228,454.43 3044.848,454.43 1681.62,0 3044.85,-203.45 3044.85,-454.43 0,-250.97 -1363.23,-454.42 -3044.85,-454.42" />
</clipPath>
<clipPath
   id="clipPath32"
   clipPathUnits="userSpaceOnUse">
  <path
     inkscape:connector-curvature="0"
     id="path34"
     d="m 5224.17,3967.3 c -3.27,-0.21 -6.5,-0.49 -9.78,-0.66 3.28,0.17 6.52,0.45 9.78,0.66 m -52.05,-1.58 c 4.09,-0.01 8.18,-0.05 12.25,0 -4.07,-0.05 -8.16,-0.01 -12.25,0 m -33.96,0.75 c 4.18,-0.19 8.33,-0.3 12.48,-0.42 -4.15,0.12 -8.3,0.23 -12.48,0.42 m -33.48,2.06 c 2.16,-0.18 4.28,-0.27 6.43,-0.43 -2.15,0.17 -4.27,0.25 -6.43,0.43 m -44.57,4.96 c 3.81,-0.51 7.62,-1.04 11.41,-1.5 -3.79,0.46 -7.6,0.99 -11.41,1.5 m -35.89,5.48 c 3.86,-0.67 7.69,-1.27 11.53,-1.89 -3.84,0.62 -7.67,1.22 -11.53,1.89 m -35.12,6.67 c 0.94,-0.2 1.86,-0.35 2.8,-0.55 -0.94,0.2 -1.86,0.35 -2.8,0.55 m -72.88,18.23 c -3.61,1.03 -7.22,2.04 -10.84,3.11 3.62,-1.07 7.23,-2.08 10.84,-3.11 m 37.46,-10.04 c -3.58,0.88 -7.18,1.84 -10.77,2.77 3.59,-0.93 7.19,-1.89 10.77,-2.77 m -105.54,32.09 c 6.92,-2.63 13.84,-5.21 20.69,-7.49 -6.88,2.29 -13.78,4.8 -20.69,7.49 m 442.98,-51.27 c -4.14,-0.65 -8.32,-1.21 -12.49,-1.79 4.17,0.58 8.35,1.14 12.49,1.79 m -31.47,-4.21 c -4.32,-0.48 -8.64,-0.96 -13,-1.38 4.36,0.42 8.68,0.9 13,1.38 m 173.65,1741.55 c -411.7,137.22 -968.74,-41.13 -1474.44,-195.42 -32.97,-8.89 -53.46,-16.21 -53.46,-16.21 0,0 304.06,-320.92 553.15,-643.21 249.12,-322.34 754.13,-580.17 1095.02,-251 0,0 -286.84,-146.01 -591.96,246.14 -86.49,111.18 -206.28,279.26 -327.78,420.56 259.19,62.94 501.13,95.56 666.59,40.46 435.99,-145.32 633.06,-493.37 501.97,-886.68 -82.15,-246.47 -256.75,-401.36 -482.96,-446.94 -114.63,-8.91 -239.9,8.04 -371.35,53.16 -271.24,93.12 -562.82,500.06 -820.13,859.1 -4.15,5.78 -10.01,13.9 -17.44,24.02 -12.96,17.66 -26.55,34.7 -40.44,51.42 -233.74,318.39 -490.04,610.27 -796.72,715.55 -692.18,237.6 -1273.37,-84.84 -1471.11,-660.88 -197.74,-576.03 62.88,-1187.45 755.06,-1425.06 410.45,-140.9 969.07,32.46 1476.13,182.22 33.05,8.6 53.6,15.73 53.6,15.73 0,0 -301.17,323.63 -547.37,648.14 -246.23,324.55 -748.9,586.89 -1092.73,260.79 0,0 288.14,143.43 589.74,-251.43 85.48,-111.95 203.77,-281.1 323.99,-423.48 -259.74,-60.61 -501.96,-91.07 -666.92,-34.49 -434.68,149.22 -628.62,499.02 -494.01,891.14 134.6,392.12 502.49,549.05 937.17,399.83 16.46,-5.65 32.99,-12.5 49.57,-20.37 -4.9,3.93 -0.79,3.67 9.3,0.6 -6.09,-0.3 -9.3,-0.6 -9.3,-0.6 464.93,-372.34 898.03,-1428.21 1549.48,-1645.34 694.28,-231.41 1272.56,96.23 1465.13,674.01 192.58,577.78 -73.5,1186.84 -767.78,1418.24" />
</clipPath>
<clipPath
   id="clipPath38"
   clipPathUnits="userSpaceOnUse">
  <path
     inkscape:connector-curvature="0"
     id="path40"
     d="m 3281.51,3714.12 c -587.64,-0.03 -1315.87,169.47 -1515.07,960.63 342.86,517.48 721.14,652.45 1001.01,665.04 -265.34,-19.92 -473.6,-179.12 -567.72,-453.32 -28.43,-82.81 -42.2,-163.76 -42.15,-241.3 -0.17,-290 192.96,-532.87 536.16,-650.69 61,-20.92 132.52,-29.94 211.62,-29.94 134.83,0.01 291.6,26.23 455.3,64.43 -0.19,0.24 -0.4,0.48 -0.6,0.71 0.21,0.05 0.4,0.1 0.6,0.14 -6.64,7.87 -13.28,15.83 -19.91,23.84 l 17.33,-12.56 c 0,0 -121.37,763.71 -599.83,763.71 -84.32,0 -179.67,-23.69 -287.47,-79.46 105.68,90.19 224.86,128.08 346.3,128.08 272.5,0 556.15,-190.97 722.58,-410.34 217.8,-287.08 478.62,-573.47 535.9,-635.72 -56.09,-13.97 -392.24,-93.24 -794.05,-93.25 m 773,71.68 c 7.95,6.26 15.69,12.48 23.51,18.9 4.39,-4.76 7.25,-7.85 8.41,-9.1 -2.66,-0.91 -14.1,-4.73 -31.92,-9.8 m -869.8,1480.96 c -1.7,0.8 -3.4,1.59 -5.11,2.37 2.24,-1.01 3.94,-1.8 5.09,-2.35 0.01,-0.01 0.02,-0.01 0.02,-0.02 m -47.23,19.34 c -0.19,0.07 -0.38,0.13 -0.58,0.2 0.2,-0.07 0.39,-0.13 0.58,-0.2 m -9.32,3.16 c -22.45,7.51 -44.69,14.2 -66.75,20.08 25.95,-6.74 48.37,-13.72 66.75,-20.08" />
</clipPath>
<linearGradient
   id="linearGradient42"
   spreadMethod="pad"
   gradientTransform="matrix(2363.58,-2363.58,-2363.58,-2363.58,2119.14,5507.41)"
   gradientUnits="userSpaceOnUse"
   y2="0"
   x2="1"
   y1="0"
   x1="0">
  <stop
     id="stop44"
     offset="0"
     style="stop-opacity:1;stop-color:#47c0c6" />
  <stop
     id="stop46"
     offset="0.995049"
     style="stop-opacity:1;stop-color:#3c2b83" />
  <stop
     id="stop48"
     offset="1"
     style="stop-opacity:1;stop-color:#3c2b83" />
</linearGradient>
<clipPath
   id="clipPath56"
   clipPathUnits="userSpaceOnUse">
  <path
     inkscape:connector-curvature="0"
     id="path58"
     d="m 5224.17,3967.3 c -3.27,-0.21 -6.5,-0.49 -9.78,-0.66 3.28,0.17 6.52,0.45 9.78,0.66 m -52.05,-1.58 c 4.09,-0.01 8.18,-0.05 12.25,0 -4.07,-0.05 -8.16,-0.01 -12.25,0 m -33.96,0.75 c 4.18,-0.19 8.33,-0.3 12.48,-0.42 -4.15,0.12 -8.3,0.23 -12.48,0.42 m -33.48,2.06 c 2.16,-0.18 4.28,-0.27 6.43,-0.43 -2.15,0.17 -4.27,0.25 -6.43,0.43 m -44.57,4.96 c 3.81,-0.51 7.62,-1.04 11.41,-1.5 -3.79,0.46 -7.6,0.99 -11.41,1.5 m -35.89,5.48 c 3.86,-0.67 7.69,-1.27 11.53,-1.89 -3.84,0.62 -7.67,1.22 -11.53,1.89 m -35.12,6.67 c 0.94,-0.2 1.86,-0.35 2.8,-0.55 -0.94,0.2 -1.86,0.35 -2.8,0.55 m -72.88,18.23 c -3.61,1.03 -7.22,2.04 -10.84,3.11 3.62,-1.07 7.23,-2.08 10.84,-3.11 m 37.46,-10.04 c -3.58,0.88 -7.18,1.84 -10.77,2.77 3.59,-0.93 7.19,-1.89 10.77,-2.77 m -105.54,32.09 c 6.92,-2.63 13.84,-5.21 20.69,-7.49 -6.88,2.29 -13.78,4.8 -20.69,7.49 m 442.98,-51.27 c -4.14,-0.65 -8.32,-1.21 -12.49,-1.79 4.17,0.58 8.35,1.14 12.49,1.79 m -31.47,-4.21 c -4.32,-0.48 -8.64,-0.96 -13,-1.38 4.36,0.42 8.68,0.9 13,1.38 m 173.65,1741.55 c -411.7,137.22 -968.74,-41.13 -1474.44,-195.42 -32.97,-8.89 -53.46,-16.21 -53.46,-16.21 0,0 304.06,-320.92 553.15,-643.21 249.12,-322.34 754.13,-580.17 1095.02,-251 0,0 -286.84,-146.01 -591.96,246.14 -86.49,111.18 -206.28,279.26 -327.78,420.56 259.19,62.94 501.13,95.56 666.59,40.46 435.99,-145.32 633.06,-493.37 501.97,-886.68 -82.15,-246.47 -256.75,-401.36 -482.96,-446.94 -114.63,-8.91 -239.9,8.04 -371.35,53.16 -271.24,93.12 -562.82,500.06 -820.13,859.1 -4.15,5.78 -10.01,13.9 -17.44,24.02 -12.96,17.66 -26.55,34.7 -40.44,51.42 -233.74,318.39 -490.04,610.27 -796.72,715.55 -692.18,237.6 -1273.37,-84.84 -1471.11,-660.88 -197.74,-576.03 62.88,-1187.45 755.06,-1425.06 410.45,-140.9 969.07,32.46 1476.13,182.22 33.05,8.6 53.6,15.73 53.6,15.73 0,0 -301.17,323.63 -547.37,648.14 -246.23,324.55 -748.9,586.89 -1092.73,260.79 0,0 288.14,143.43 589.74,-251.43 85.48,-111.95 203.77,-281.1 323.99,-423.48 -259.74,-60.61 -501.96,-91.07 -666.92,-34.49 -434.68,149.22 -628.62,499.02 -494.01,891.14 134.6,392.12 502.49,549.05 937.17,399.83 16.46,-5.65 32.99,-12.5 49.57,-20.37 -4.9,3.93 -0.79,3.67 9.3,0.6 -6.09,-0.3 -9.3,-0.6 -9.3,-0.6 464.93,-372.34 898.03,-1428.21 1549.48,-1645.34 694.28,-231.41 1272.56,96.23 1465.13,674.01 192.58,577.78 -73.5,1186.84 -767.78,1418.24" />
</clipPath>
<clipPath
   id="clipPath62"
   clipPathUnits="userSpaceOnUse">
  <path
     inkscape:connector-curvature="0"
     id="path64"
     d="m 3179.6,5269.13 c -3.17,1.43 -7.4,3.28 -12.65,5.46 -9.85,4.19 -19.67,8.13 -29.47,11.51 13.99,-4.83 28.04,-10.52 42.12,-16.97 m -42.7,17.17 v 0 c -1.21,0.42 -2.41,0.76 -3.62,1.17 -1.67,0.59 -3.38,1.19 -5.12,1.79 2.91,-0.97 5.82,-1.96 8.74,-2.96 v 0 m -75.49,23.04 c -1.24,0.32 -2.49,0.64 -3.75,0.96 -1.18,0.31 -2.35,0.61 -3.53,0.91 -6.21,1.56 -12.57,3.1 -19.16,4.61 -72.69,17.38 -142.99,25.89 -210.1,25.89 -16.94,0 -33.7,-0.54 -50.22,-1.62 -2.4,-0.09 -4.79,-0.19 -7.2,-0.3 18.85,1.42 37.98,2.13 57.39,2.13 75.23,0 154.48,-10.69 236.57,-32.58" />
</clipPath>
<clipPath
   id="clipPath74"
   clipPathUnits="userSpaceOnUse">
  <path
     inkscape:connector-curvature="0"
     id="path76"
     d="m 5224.17,3967.3 c -3.27,-0.21 -6.5,-0.49 -9.78,-0.66 3.28,0.17 6.52,0.45 9.78,0.66 m -52.05,-1.58 c 4.09,-0.01 8.18,-0.05 12.25,0 -4.07,-0.05 -8.16,-0.01 -12.25,0 m -33.96,0.75 c 4.18,-0.19 8.33,-0.3 12.48,-0.42 -4.15,0.12 -8.3,0.23 -12.48,0.42 m -33.48,2.06 c 2.16,-0.18 4.28,-0.27 6.43,-0.43 -2.15,0.17 -4.27,0.25 -6.43,0.43 m -44.57,4.96 c 3.81,-0.51 7.62,-1.04 11.41,-1.5 -3.79,0.46 -7.6,0.99 -11.41,1.5 m -35.89,5.48 c 3.86,-0.67 7.69,-1.27 11.53,-1.89 -3.84,0.62 -7.67,1.22 -11.53,1.89 m -35.12,6.67 c 0.94,-0.2 1.86,-0.35 2.8,-0.55 -0.94,0.2 -1.86,0.35 -2.8,0.55 m -72.88,18.23 c -3.61,1.03 -7.22,2.04 -10.84,3.11 3.62,-1.07 7.23,-2.08 10.84,-3.11 m 37.46,-10.04 c -3.58,0.88 -7.18,1.84 -10.77,2.77 3.59,-0.93 7.19,-1.89 10.77,-2.77 m -105.54,32.09 c 6.92,-2.63 13.84,-5.21 20.69,-7.49 -6.88,2.29 -13.78,4.8 -20.69,7.49 m 442.98,-51.27 c -4.14,-0.65 -8.32,-1.21 -12.49,-1.79 4.17,0.58 8.35,1.14 12.49,1.79 m -31.47,-4.21 c -4.32,-0.48 -8.64,-0.96 -13,-1.38 4.36,0.42 8.68,0.9 13,1.38 m 173.65,1741.55 c -411.7,137.22 -968.74,-41.13 -1474.44,-195.42 -32.97,-8.89 -53.46,-16.21 -53.46,-16.21 0,0 304.06,-320.92 553.15,-643.21 249.12,-322.34 754.13,-580.17 1095.02,-251 0,0 -286.84,-146.01 -591.96,246.14 -86.49,111.18 -206.28,279.26 -327.78,420.56 259.19,62.94 501.13,95.56 666.59,40.46 435.99,-145.32 633.06,-493.37 501.97,-886.68 -82.15,-246.47 -256.75,-401.36 -482.96,-446.94 -114.63,-8.91 -239.9,8.04 -371.35,53.16 -271.24,93.12 -562.82,500.06 -820.13,859.1 -4.15,5.78 -10.01,13.9 -17.44,24.02 -12.96,17.66 -26.55,34.7 -40.44,51.42 -233.74,318.39 -490.04,610.27 -796.72,715.55 -692.18,237.6 -1273.37,-84.84 -1471.11,-660.88 -197.74,-576.03 62.88,-1187.45 755.06,-1425.06 410.45,-140.9 969.07,32.46 1476.13,182.22 33.05,8.6 53.6,15.73 53.6,15.73 0,0 -301.17,323.63 -547.37,648.14 -246.23,324.55 -748.9,586.89 -1092.73,260.79 0,0 288.14,143.43 589.74,-251.43 85.48,-111.95 203.77,-281.1 323.99,-423.48 -259.74,-60.61 -501.96,-91.07 -666.92,-34.49 -434.68,149.22 -628.62,499.02 -494.01,891.14 134.6,392.12 502.49,549.05 937.17,399.83 16.46,-5.65 32.99,-12.5 49.57,-20.37 -4.9,3.93 -0.79,3.67 9.3,0.6 -6.09,-0.3 -9.3,-0.6 -9.3,-0.6 464.93,-372.34 898.03,-1428.21 1549.48,-1645.34 694.28,-231.41 1272.56,96.23 1465.13,674.01 192.58,577.78 -73.5,1186.84 -767.78,1418.24" />
</clipPath>
<clipPath
   id="clipPath80"
   clipPathUnits="userSpaceOnUse">
  <path
     inkscape:connector-curvature="0"
     id="path82"
     d="m 5174.12,3966.45 c -0.03,0 -0.06,0 -0.1,0 -95.94,0.02 -198.49,17.26 -305.19,52.82 -0.21,0.08 -0.42,0.15 -0.64,0.22 -212.07,71.07 -438.18,332.48 -650.93,613.2 -17.84,22.07 -42.49,54.93 -74.98,100.27 l -0.05,0.06 c -8,10.82 -15.97,21.64 -23.92,32.44 -351.75,466.1 -776.73,501.61 -898.05,501.61 -10.51,0 -18.75,-0.27 -24.46,-0.54 -4.95,1.51 -8.47,2.34 -10.19,2.34 -0.8,0 -1.21,-0.18 -1.22,-0.54 v 0 c 0,-0.15 0.06,-0.33 0.19,-0.54 -0.26,-0.19 -0.23,-0.53 0.11,-1.01 -1.15,0.55 -2.85,1.34 -5.09,2.35 -14.08,6.45 -28.13,12.14 -42.12,16.97 -0.19,0.07 -0.38,0.13 -0.58,0.2 v 0 c -2.92,1 -5.83,1.99 -8.74,2.96 -18.38,6.36 -40.8,13.34 -66.75,20.08 -82.09,21.89 -161.34,32.58 -236.57,32.58 -19.41,0 -38.54,-0.71 -57.39,-2.13 -279.87,-12.59 -658.15,-147.56 -1001.01,-665.04 -7.92,31.45 -15,63.88 -21.21,97.32 9.54,83.26 28.52,166.98 57.01,249.99 153.04,445.81 535.66,739.69 1021.74,739.69 141.99,0 292.89,-25.1 449.37,-78.81 306.68,-105.28 562.98,-397.16 796.72,-715.55 13.89,-16.72 27.48,-33.76 40.44,-51.42 7.43,-10.12 13.29,-18.24 17.44,-24.02 257.31,-359.04 548.89,-765.98 820.13,-859.1 108.98,-37.41 213.69,-55.45 311.64,-55.45 17.82,0 35.43,0.6 52.79,1.79 -44.26,-8.44 -90.5,-12.74 -138.35,-12.74 -0.01,0 -0.02,0 -0.04,0" />
</clipPath>
<clipPath
   id="clipPath92"
   clipPathUnits="userSpaceOnUse">
  <path
     inkscape:connector-curvature="0"
     id="path94"
     d="m 5224.17,3967.3 c -3.27,-0.21 -6.5,-0.49 -9.78,-0.66 3.28,0.17 6.52,0.45 9.78,0.66 m -52.05,-1.58 c 4.09,-0.01 8.18,-0.05 12.25,0 -4.07,-0.05 -8.16,-0.01 -12.25,0 m -33.96,0.75 c 4.18,-0.19 8.33,-0.3 12.48,-0.42 -4.15,0.12 -8.3,0.23 -12.48,0.42 m -33.48,2.06 c 2.16,-0.18 4.28,-0.27 6.43,-0.43 -2.15,0.17 -4.27,0.25 -6.43,0.43 m -44.57,4.96 c 3.81,-0.51 7.62,-1.04 11.41,-1.5 -3.79,0.46 -7.6,0.99 -11.41,1.5 m -35.89,5.48 c 3.86,-0.67 7.69,-1.27 11.53,-1.89 -3.84,0.62 -7.67,1.22 -11.53,1.89 m -35.12,6.67 c 0.94,-0.2 1.86,-0.35 2.8,-0.55 -0.94,0.2 -1.86,0.35 -2.8,0.55 m -72.88,18.23 c -3.61,1.03 -7.22,2.04 -10.84,3.11 3.62,-1.07 7.23,-2.08 10.84,-3.11 m 37.46,-10.04 c -3.58,0.88 -7.18,1.84 -10.77,2.77 3.59,-0.93 7.19,-1.89 10.77,-2.77 m -105.54,32.09 c 6.92,-2.63 13.84,-5.21 20.69,-7.49 -6.88,2.29 -13.78,4.8 -20.69,7.49 m 442.98,-51.27 c -4.14,-0.65 -8.32,-1.21 -12.49,-1.79 4.17,0.58 8.35,1.14 12.49,1.79 m -31.47,-4.21 c -4.32,-0.48 -8.64,-0.96 -13,-1.38 4.36,0.42 8.68,0.9 13,1.38 m 173.65,1741.55 c -411.7,137.22 -968.74,-41.13 -1474.44,-195.42 -32.97,-8.89 -53.46,-16.21 -53.46,-16.21 0,0 304.06,-320.92 553.15,-643.21 249.12,-322.34 754.13,-580.17 1095.02,-251 0,0 -286.84,-146.01 -591.96,246.14 -86.49,111.18 -206.28,279.26 -327.78,420.56 259.19,62.94 501.13,95.56 666.59,40.46 435.99,-145.32 633.06,-493.37 501.97,-886.68 -82.15,-246.47 -256.75,-401.36 -482.96,-446.94 -114.63,-8.91 -239.9,8.04 -371.35,53.16 -271.24,93.12 -562.82,500.06 -820.13,859.1 -4.15,5.78 -10.01,13.9 -17.44,24.02 -12.96,17.66 -26.55,34.7 -40.44,51.42 -233.74,318.39 -490.04,610.27 -796.72,715.55 -692.18,237.6 -1273.37,-84.84 -1471.11,-660.88 -197.74,-576.03 62.88,-1187.45 755.06,-1425.06 410.45,-140.9 969.07,32.46 1476.13,182.22 33.05,8.6 53.6,15.73 53.6,15.73 0,0 -301.17,323.63 -547.37,648.14 -246.23,324.55 -748.9,586.89 -1092.73,260.79 0,0 288.14,143.43 589.74,-251.43 85.48,-111.95 203.77,-281.1 323.99,-423.48 -259.74,-60.61 -501.96,-91.07 -666.92,-34.49 -434.68,149.22 -628.62,499.02 -494.01,891.14 134.6,392.12 502.49,549.05 937.17,399.83 16.46,-5.65 32.99,-12.5 49.57,-20.37 -4.9,3.93 -0.79,3.67 9.3,0.6 -6.09,-0.3 -9.3,-0.6 -9.3,-0.6 464.93,-372.34 898.03,-1428.21 1549.48,-1645.34 694.28,-231.41 1272.56,96.23 1465.13,674.01 192.58,577.78 -73.5,1186.84 -767.78,1418.24" />
</clipPath>
<clipPath
   id="clipPath98"
   clipPathUnits="userSpaceOnUse">
  <path
     inkscape:connector-curvature="0"
     id="path100"
     d="m 5175.18,3545.74 c -138.83,0.01 -286.26,23.86 -439.23,74.85 -644.13,214.69 -1074.78,1249.38 -1533.81,1632.53 195.98,-163.59 386.8,-445.95 591.26,-732.54 v 0 c 0,0 644.84,-588.89 1246.5,-588.89 94.21,0 187.24,14.4 276.69,47.79 0.95,0.07 1.9,0.14 2.84,0.21 226.21,45.58 400.81,200.47 482.96,446.94 26.97,80.92 40.05,159.96 40.02,235.68 0.23,292.66 -195.38,536.32 -541.99,651.84 -58.81,19.59 -127.26,28.09 -202.73,28.09 -136.87,0 -296.79,-27.97 -463.86,-68.54 0.2,-0.23 0.41,-0.47 0.61,-0.71 v 0 c -0.2,0.24 -0.41,0.48 -0.61,0.71 v 0 c 0,0 0.05,-0.28 0.14,-0.82 -0.05,-0.01 -0.09,-0.02 -0.14,-0.03 0.06,-0.07 0.12,-0.13 0.18,-0.2 5.22,-31.53 131.51,-762.56 599.65,-762.66 90.74,-0.02 194.29,27.46 312.34,92.78 2.59,1.07 4.53,1.94 5.8,2.53 -111.55,-106.89 -240.47,-151.19 -372.26,-151.19 -270.91,0 -553.68,187.42 -720.99,403.89 -242.66,313.97 -537.49,626.64 -552.55,642.57 1.28,0.45 4.55,1.58 9.57,3.21 61.51,15.21 394.71,92.77 792.12,92.77 619.47,0 1395.18,-188.32 1542.67,-1094.75 h 0.08 c -9.97,-69.07 -26.4,-138.33 -49.36,-207.2 -150.14,-450.48 -534.66,-748.89 -1025.9,-748.86 m -304.47,472.91 c -0.63,0.21 -1.25,0.42 -1.88,0.62 -212.26,70.75 -438.6,332.41 -651.57,613.42 -17.84,22.07 -42.49,54.93 -74.98,100.27 l -0.05,0.06 c -8,10.82 -15.97,21.64 -23.92,32.44 -351.75,466.1 -776.73,501.61 -898.05,501.61 -12.16,0 -21.26,-0.35 -26.94,-0.67 v 0 c 0.77,0.04 1.59,0.09 2.48,0.13 v 0 c 5.71,0.27 13.95,0.54 24.46,0.54 121.32,0 546.3,-35.51 898.05,-501.61 7.95,-10.8 15.92,-21.62 23.92,-32.44 l 0.05,-0.06 c 32.49,-45.34 57.14,-78.2 74.98,-100.27 212.75,-280.72 438.86,-542.13 650.93,-613.2 v 0 c 0.22,-0.08 0.42,-0.14 0.64,-0.22 0.61,-0.2 1.26,-0.42 1.88,-0.62 M 3202.12,5253.13 c -0.23,0.19 -0.44,0.36 -0.66,0.55 0.22,-0.18 0.43,-0.36 0.66,-0.55 m -0.68,0.57 c -1.13,0.94 -2.24,1.86 -3.38,2.8 1.13,-0.93 2.25,-1.86 3.38,-2.8 m -3.42,2.83 c -0.23,0.19 -0.39,0.33 -0.62,0.52 0.21,-0.18 0.41,-0.34 0.62,-0.52 m -0.68,0.57 c -0.23,0.19 -0.39,0.32 -0.62,0.5 0.21,-0.17 0.41,-0.33 0.62,-0.5 m -0.68,0.55 c -0.68,0.56 -1.33,1.1 -2.01,1.65 0.66,-0.54 1.35,-1.1 2.01,-1.65 m -2.05,1.69 c -0.2,0.16 -0.4,0.32 -0.6,0.49 0.21,-0.17 0.39,-0.32 0.6,-0.49 m -0.74,0.61 c -0.17,0.13 -0.34,0.27 -0.51,0.41 0.16,-0.13 0.35,-0.28 0.51,-0.41 m -0.67,0.54 c -0.17,0.14 -0.33,0.27 -0.5,0.41 0.16,-0.13 0.34,-0.28 0.5,-0.41 m -0.66,0.54 c -0.17,0.14 -0.37,0.3 -0.54,0.43 0.17,-0.14 0.36,-0.29 0.54,-0.43 m -0.65,0.52 c -0.65,0.53 -1.32,1.07 -1.97,1.6 0.67,-0.54 1.31,-1.06 1.97,-1.6 m -2.13,1.73 c -0.17,0.14 -0.32,0.26 -0.49,0.4 0.16,-0.13 0.33,-0.27 0.49,-0.4 m -0.68,0.55 c -0.17,0.14 -0.27,0.22 -0.44,0.36 0.15,-0.12 0.3,-0.24 0.44,-0.36 m -0.67,0.54 c -0.14,0.12 -0.3,0.24 -0.44,0.36 0.13,-0.11 0.3,-0.25 0.44,-0.36 m -0.64,0.51 c -0.11,0.1 -0.23,0.19 -0.34,0.28 v 0 c 0.11,-0.09 0.23,-0.19 0.34,-0.28" />
</clipPath>
<linearGradient
   id="linearGradient102"
   spreadMethod="pad"
   gradientTransform="matrix(1577.3,1577.3,1577.3,-1577.3,4100.73,4100.24)"
   gradientUnits="userSpaceOnUse"
   y2="0"
   x2="1"
   y1="0"
   x1="0">
  <stop
     id="stop104"
     offset="0"
     style="stop-opacity:1;stop-color:#652175" />
  <stop
     id="stop106"
     offset="1"
     style="stop-opacity:1;stop-color:#ee1b58" />
</linearGradient>
<clipPath
   id="clipPath114"
   clipPathUnits="userSpaceOnUse">
  <path
     inkscape:connector-curvature="0"
     id="path116"
     d="m 5224.17,3967.3 c -3.27,-0.21 -6.5,-0.49 -9.78,-0.66 3.28,0.17 6.52,0.45 9.78,0.66 m -52.05,-1.58 c 4.09,-0.01 8.18,-0.05 12.25,0 -4.07,-0.05 -8.16,-0.01 -12.25,0 m -33.96,0.75 c 4.18,-0.19 8.33,-0.3 12.48,-0.42 -4.15,0.12 -8.3,0.23 -12.48,0.42 m -33.48,2.06 c 2.16,-0.18 4.28,-0.27 6.43,-0.43 -2.15,0.17 -4.27,0.25 -6.43,0.43 m -44.57,4.96 c 3.81,-0.51 7.62,-1.04 11.41,-1.5 -3.79,0.46 -7.6,0.99 -11.41,1.5 m -35.89,5.48 c 3.86,-0.67 7.69,-1.27 11.53,-1.89 -3.84,0.62 -7.67,1.22 -11.53,1.89 m -35.12,6.67 c 0.94,-0.2 1.86,-0.35 2.8,-0.55 -0.94,0.2 -1.86,0.35 -2.8,0.55 m -72.88,18.23 c -3.61,1.03 -7.22,2.04 -10.84,3.11 3.62,-1.07 7.23,-2.08 10.84,-3.11 m 37.46,-10.04 c -3.58,0.88 -7.18,1.84 -10.77,2.77 3.59,-0.93 7.19,-1.89 10.77,-2.77 m -105.54,32.09 c 6.92,-2.63 13.84,-5.21 20.69,-7.49 -6.88,2.29 -13.78,4.8 -20.69,7.49 m 442.98,-51.27 c -4.14,-0.65 -8.32,-1.21 -12.49,-1.79 4.17,0.58 8.35,1.14 12.49,1.79 m -31.47,-4.21 c -4.32,-0.48 -8.64,-0.96 -13,-1.38 4.36,0.42 8.68,0.9 13,1.38 m 173.65,1741.55 c -411.7,137.22 -968.74,-41.13 -1474.44,-195.42 -32.97,-8.89 -53.46,-16.21 -53.46,-16.21 0,0 304.06,-320.92 553.15,-643.21 249.12,-322.34 754.13,-580.17 1095.02,-251 0,0 -286.84,-146.01 -591.96,246.14 -86.49,111.18 -206.28,279.26 -327.78,420.56 259.19,62.94 501.13,95.56 666.59,40.46 435.99,-145.32 633.06,-493.37 501.97,-886.68 -82.15,-246.47 -256.75,-401.36 -482.96,-446.94 -114.63,-8.91 -239.9,8.04 -371.35,53.16 -271.24,93.12 -562.82,500.06 -820.13,859.1 -4.15,5.78 -10.01,13.9 -17.44,24.02 -12.96,17.66 -26.55,34.7 -40.44,51.42 -233.74,318.39 -490.04,610.27 -796.72,715.55 -692.18,237.6 -1273.37,-84.84 -1471.11,-660.88 -197.74,-576.03 62.88,-1187.45 755.06,-1425.06 410.45,-140.9 969.07,32.46 1476.13,182.22 33.05,8.6 53.6,15.73 53.6,15.73 0,0 -301.17,323.63 -547.37,648.14 -246.23,324.55 -748.9,586.89 -1092.73,260.79 0,0 288.14,143.43 589.74,-251.43 85.48,-111.95 203.77,-281.1 323.99,-423.48 -259.74,-60.61 -501.96,-91.07 -666.92,-34.49 -434.68,149.22 -628.62,499.02 -494.01,891.14 134.6,392.12 502.49,549.05 937.17,399.83 16.46,-5.65 32.99,-12.5 49.57,-20.37 -4.9,3.93 -0.79,3.67 9.3,0.6 -6.09,-0.3 -9.3,-0.6 -9.3,-0.6 464.93,-372.34 898.03,-1428.21 1549.48,-1645.34 694.28,-231.41 1272.56,96.23 1465.13,674.01 192.58,577.78 -73.5,1186.84 -767.78,1418.24" />
</clipPath>
<clipPath
   id="clipPath120"
   clipPathUnits="userSpaceOnUse">
  <path
     inkscape:connector-curvature="0"
     id="path122"
     d="m 5174.24,3966.42 c -95.46,0 -197.4,17.05 -303.53,52.23 106.03,-35.14 207.93,-52.19 303.31,-52.2 0.04,0 0.07,0 0.1,0 v 0 0 c 0.02,0 0.03,0 0.04,0 47.86,0 94.08,4.29 138.35,12.74 0.12,0.01 0.25,0.02 0.37,0.02 -44.37,-8.48 -90.67,-12.79 -138.64,-12.79 m -1972.1,1286.7 c -0.02,0.01 -0.01,0 -0.02,0.01 l 0.02,-0.01 m -0.68,0.56 -0.02,0.02 0.02,-0.02 m -3.4,2.82 c -0.01,0.01 -0.03,0.02 -0.04,0.03 l 0.04,-0.03 m -0.66,0.55 c -0.01,0.01 -0.05,0.04 -0.06,0.05 l 0.06,-0.05 m -0.68,0.55 c -0.02,0.02 -0.03,0.03 -0.06,0.05 l 0.06,-0.05 m -2.07,1.7 c -0.01,0.01 -0.03,0.03 -0.04,0.04 l 0.04,-0.04 m -0.64,0.53 c -0.05,0.04 -0.09,0.08 -0.14,0.12 0.05,-0.05 0.09,-0.08 0.14,-0.12 m -0.65,0.53 c -0.07,0.05 -0.1,0.08 -0.16,0.13 0.06,-0.05 0.1,-0.08 0.16,-0.13 m -0.66,0.54 c -0.06,0.05 -0.1,0.08 -0.16,0.13 0.05,-0.05 0.1,-0.09 0.16,-0.13 m -0.7,0.56 c -0.03,0.03 -0.07,0.06 -0.11,0.09 0.03,-0.02 0.08,-0.06 0.11,-0.09 m -2.08,1.69 c -0.05,0.04 -0.11,0.09 -0.16,0.13 0.06,-0.04 0.11,-0.08 0.16,-0.13 m -0.65,0.53 c -0.06,0.05 -0.13,0.1 -0.19,0.15 0.06,-0.05 0.14,-0.11 0.19,-0.15 m -0.63,0.51 c -0.09,0.07 -0.14,0.11 -0.23,0.18 0.06,-0.04 0.17,-0.14 0.23,-0.18 m -0.67,0.54 c -0.07,0.06 -0.12,0.1 -0.2,0.15 0.09,-0.06 0.11,-0.09 0.2,-0.15" />
</clipPath>
<clipPath
   id="clipPath132"
   clipPathUnits="userSpaceOnUse">
  <path
     inkscape:connector-curvature="0"
     id="path134"
     d="m 5224.17,3967.3 c -3.27,-0.21 -6.5,-0.49 -9.78,-0.66 3.28,0.17 6.52,0.45 9.78,0.66 m -52.05,-1.58 c 4.09,-0.01 8.18,-0.05 12.25,0 -4.07,-0.05 -8.16,-0.01 -12.25,0 m -33.96,0.75 c 4.18,-0.19 8.33,-0.3 12.48,-0.42 -4.15,0.12 -8.3,0.23 -12.48,0.42 m -33.48,2.06 c 2.16,-0.18 4.28,-0.27 6.43,-0.43 -2.15,0.17 -4.27,0.25 -6.43,0.43 m -44.57,4.96 c 3.81,-0.51 7.62,-1.04 11.41,-1.5 -3.79,0.46 -7.6,0.99 -11.41,1.5 m -35.89,5.48 c 3.86,-0.67 7.69,-1.27 11.53,-1.89 -3.84,0.62 -7.67,1.22 -11.53,1.89 m -35.12,6.67 c 0.94,-0.2 1.86,-0.35 2.8,-0.55 -0.94,0.2 -1.86,0.35 -2.8,0.55 m -72.88,18.23 c -3.61,1.03 -7.22,2.04 -10.84,3.11 3.62,-1.07 7.23,-2.08 10.84,-3.11 m 37.46,-10.04 c -3.58,0.88 -7.18,1.84 -10.77,2.77 3.59,-0.93 7.19,-1.89 10.77,-2.77 m -105.54,32.09 c 6.92,-2.63 13.84,-5.21 20.69,-7.49 -6.88,2.29 -13.78,4.8 -20.69,7.49 m 442.98,-51.27 c -4.14,-0.65 -8.32,-1.21 -12.49,-1.79 4.17,0.58 8.35,1.14 12.49,1.79 m -31.47,-4.21 c -4.32,-0.48 -8.64,-0.96 -13,-1.38 4.36,0.42 8.68,0.9 13,1.38 m 173.65,1741.55 c -411.7,137.22 -968.74,-41.13 -1474.44,-195.42 -32.97,-8.89 -53.46,-16.21 -53.46,-16.21 0,0 304.06,-320.92 553.15,-643.21 249.12,-322.34 754.13,-580.17 1095.02,-251 0,0 -286.84,-146.01 -591.96,246.14 -86.49,111.18 -206.28,279.26 -327.78,420.56 259.19,62.94 501.13,95.56 666.59,40.46 435.99,-145.32 633.06,-493.37 501.97,-886.68 -82.15,-246.47 -256.75,-401.36 -482.96,-446.94 -114.63,-8.91 -239.9,8.04 -371.35,53.16 -271.24,93.12 -562.82,500.06 -820.13,859.1 -4.15,5.78 -10.01,13.9 -17.44,24.02 -12.96,17.66 -26.55,34.7 -40.44,51.42 -233.74,318.39 -490.04,610.27 -796.72,715.55 -692.18,237.6 -1273.37,-84.84 -1471.11,-660.88 -197.74,-576.03 62.88,-1187.45 755.06,-1425.06 410.45,-140.9 969.07,32.46 1476.13,182.22 33.05,8.6 53.6,15.73 53.6,15.73 0,0 -301.17,323.63 -547.37,648.14 -246.23,324.55 -748.9,586.89 -1092.73,260.79 0,0 288.14,143.43 589.74,-251.43 85.48,-111.95 203.77,-281.1 323.99,-423.48 -259.74,-60.61 -501.96,-91.07 -666.92,-34.49 -434.68,149.22 -628.62,499.02 -494.01,891.14 134.6,392.12 502.49,549.05 937.17,399.83 16.46,-5.65 32.99,-12.5 49.57,-20.37 -4.9,3.93 -0.79,3.67 9.3,0.6 -6.09,-0.3 -9.3,-0.6 -9.3,-0.6 464.93,-372.34 898.03,-1428.21 1549.48,-1645.34 694.28,-231.41 1272.56,96.23 1465.13,674.01 192.58,577.78 -73.5,1186.84 -767.78,1418.24" />
</clipPath>
<clipPath
   id="clipPath138"
   clipPathUnits="userSpaceOnUse">
  <path
     inkscape:connector-curvature="0"
     id="path140"
     d="m 5174.16,3966.45 c 47.85,0 94.09,4.3 138.35,12.74 v 0 c -44.27,-8.45 -90.49,-12.74 -138.35,-12.74" />
</clipPath>
<clipPath
   id="clipPath150"
   clipPathUnits="userSpaceOnUse">
  <path
     inkscape:connector-curvature="0"
     id="path152"
     d="m 5224.17,3967.3 c -3.27,-0.21 -6.5,-0.49 -9.78,-0.66 3.28,0.17 6.52,0.45 9.78,0.66 m -52.05,-1.58 c 4.09,-0.01 8.18,-0.05 12.25,0 -4.07,-0.05 -8.16,-0.01 -12.25,0 m -33.96,0.75 c 4.18,-0.19 8.33,-0.3 12.48,-0.42 -4.15,0.12 -8.3,0.23 -12.48,0.42 m -33.48,2.06 c 2.16,-0.18 4.28,-0.27 6.43,-0.43 -2.15,0.17 -4.27,0.25 -6.43,0.43 m -44.57,4.96 c 3.81,-0.51 7.62,-1.04 11.41,-1.5 -3.79,0.46 -7.6,0.99 -11.41,1.5 m -35.89,5.48 c 3.86,-0.67 7.69,-1.27 11.53,-1.89 -3.84,0.62 -7.67,1.22 -11.53,1.89 m -35.12,6.67 c 0.94,-0.2 1.86,-0.35 2.8,-0.55 -0.94,0.2 -1.86,0.35 -2.8,0.55 m -72.88,18.23 c -3.61,1.03 -7.22,2.04 -10.84,3.11 3.62,-1.07 7.23,-2.08 10.84,-3.11 m 37.46,-10.04 c -3.58,0.88 -7.18,1.84 -10.77,2.77 3.59,-0.93 7.19,-1.89 10.77,-2.77 m -105.54,32.09 c 6.92,-2.63 13.84,-5.21 20.69,-7.49 -6.88,2.29 -13.78,4.8 -20.69,7.49 m 442.98,-51.27 c -4.14,-0.65 -8.32,-1.21 -12.49,-1.79 4.17,0.58 8.35,1.14 12.49,1.79 m -31.47,-4.21 c -4.32,-0.48 -8.64,-0.96 -13,-1.38 4.36,0.42 8.68,0.9 13,1.38 m 173.65,1741.55 c -411.7,137.22 -968.74,-41.13 -1474.44,-195.42 -32.97,-8.89 -53.46,-16.21 -53.46,-16.21 0,0 304.06,-320.92 553.15,-643.21 249.12,-322.34 754.13,-580.17 1095.02,-251 0,0 -286.84,-146.01 -591.96,246.14 -86.49,111.18 -206.28,279.26 -327.78,420.56 259.19,62.94 501.13,95.56 666.59,40.46 435.99,-145.32 633.06,-493.37 501.97,-886.68 -82.15,-246.47 -256.75,-401.36 -482.96,-446.94 -114.63,-8.91 -239.9,8.04 -371.35,53.16 -271.24,93.12 -562.82,500.06 -820.13,859.1 -4.15,5.78 -10.01,13.9 -17.44,24.02 -12.96,17.66 -26.55,34.7 -40.44,51.42 -233.74,318.39 -490.04,610.27 -796.72,715.55 -692.18,237.6 -1273.37,-84.84 -1471.11,-660.88 -197.74,-576.03 62.88,-1187.45 755.06,-1425.06 410.45,-140.9 969.07,32.46 1476.13,182.22 33.05,8.6 53.6,15.73 53.6,15.73 0,0 -301.17,323.63 -547.37,648.14 -246.23,324.55 -748.9,586.89 -1092.73,260.79 0,0 288.14,143.43 589.74,-251.43 85.48,-111.95 203.77,-281.1 323.99,-423.48 -259.74,-60.61 -501.96,-91.07 -666.92,-34.49 -434.68,149.22 -628.62,499.02 -494.01,891.14 134.6,392.12 502.49,549.05 937.17,399.83 16.46,-5.65 32.99,-12.5 49.57,-20.37 -4.9,3.93 -0.79,3.67 9.3,0.6 -6.09,-0.3 -9.3,-0.6 -9.3,-0.6 464.93,-372.34 898.03,-1428.21 1549.48,-1645.34 694.28,-231.41 1272.56,96.23 1465.13,674.01 192.58,577.78 -73.5,1186.84 -767.78,1418.24" />
</clipPath>
<clipPath
   id="clipPath156"
   clipPathUnits="userSpaceOnUse">
  <path
     inkscape:connector-curvature="0"
     id="path158"
     d="m 5039.9,3931.69 c -601.66,0 -1246.5,588.89 -1246.5,588.89 v 0 c -204.46,286.59 -395.28,568.95 -591.26,732.54 l -0.02,0.01 c -0.23,0.19 -0.44,0.37 -0.66,0.55 l -0.02,0.02 c -1.13,0.94 -2.25,1.87 -3.38,2.8 l -0.04,0.03 c -0.21,0.18 -0.41,0.34 -0.62,0.52 l -0.06,0.05 c -0.21,0.17 -0.41,0.33 -0.62,0.5 l -0.06,0.05 c -0.66,0.55 -1.35,1.11 -2.01,1.65 l -0.04,0.04 c -0.21,0.17 -0.39,0.32 -0.6,0.49 -0.05,0.04 -0.09,0.07 -0.14,0.12 -0.16,0.13 -0.35,0.28 -0.51,0.41 -0.06,0.05 -0.1,0.08 -0.16,0.13 -0.16,0.13 -0.34,0.28 -0.5,0.41 -0.06,0.04 -0.11,0.08 -0.16,0.13 -0.18,0.14 -0.37,0.29 -0.54,0.43 -0.03,0.03 -0.08,0.07 -0.11,0.09 -0.66,0.54 -1.3,1.06 -1.97,1.6 -0.05,0.05 -0.1,0.09 -0.16,0.13 -0.16,0.13 -0.33,0.27 -0.49,0.4 -0.05,0.04 -0.13,0.1 -0.19,0.15 -0.14,0.12 -0.29,0.24 -0.44,0.36 -0.06,0.04 -0.17,0.14 -0.23,0.18 -0.14,0.11 -0.31,0.25 -0.44,0.36 -0.09,0.06 -0.11,0.09 -0.2,0.15 -0.11,0.09 -0.23,0.19 -0.34,0.28 1.37,0.11 4.18,0.31 8.34,0.52 -0.86,0.26 -1.68,0.5 -2.45,0.72 5.68,0.32 14.78,0.67 26.94,0.67 121.32,0 546.3,-35.51 898.05,-501.61 7.95,-10.8 15.92,-21.62 23.92,-32.44 l 0.05,-0.06 c 32.49,-45.34 57.14,-78.2 74.98,-100.27 212.97,-281.01 439.31,-542.67 651.57,-613.42 0.63,-0.2 1.25,-0.41 1.88,-0.62 106.13,-35.18 208.07,-52.23 303.53,-52.23 47.97,0 94.27,4.31 138.64,12.79 1.24,0.09 2.47,0.18 3.71,0.27 -89.45,-33.39 -182.48,-47.79 -276.69,-47.79 m 132.22,34.03 c 2.5,-0.01 5.01,-0.03 7.52,-0.03 1.58,0 3.15,0.01 4.73,0.03 -1.55,-0.02 -3.09,-0.03 -4.64,-0.03 -2.54,0 -5.08,0.02 -7.61,0.03 m -33.96,0.75 c 4.18,-0.19 8.33,-0.3 12.48,-0.42 -4.15,0.12 -8.3,0.23 -12.48,0.42 m -33.48,2.06 c 0.07,0 0.14,-0.01 0.21,-0.02 -0.07,0.01 -0.14,0.02 -0.21,0.02 m 186.44,6.12 c -4.14,-0.65 -8.32,-1.21 -12.49,-1.79 4.17,0.58 8.35,1.14 12.49,1.79 m -348.21,21.95 c 3.59,-0.93 7.19,-1.89 10.77,-2.77 -3.58,0.88 -7.18,1.84 -10.77,2.77 m -37.53,10.38 c 3.62,-1.07 7.23,-2.08 10.84,-3.11 -3.61,1.03 -7.22,2.04 -10.84,3.11 m -57.24,18.94 c 6.91,-2.69 13.81,-5.2 20.69,-7.49 -6.85,2.28 -13.77,4.86 -20.69,7.49" />
</clipPath>
<clipPath
   id="clipPath168"
   clipPathUnits="userSpaceOnUse">
  <path
     inkscape:connector-curvature="0"
     id="path170"
     d="m 5224.17,3967.3 c -3.27,-0.21 -6.5,-0.49 -9.78,-0.66 3.28,0.17 6.52,0.45 9.78,0.66 m -52.05,-1.58 c 4.09,-0.01 8.18,-0.05 12.25,0 -4.07,-0.05 -8.16,-0.01 -12.25,0 m -33.96,0.75 c 4.18,-0.19 8.33,-0.3 12.48,-0.42 -4.15,0.12 -8.3,0.23 -12.48,0.42 m -33.48,2.06 c 2.16,-0.18 4.28,-0.27 6.43,-0.43 -2.15,0.17 -4.27,0.25 -6.43,0.43 m -44.57,4.96 c 3.81,-0.51 7.62,-1.04 11.41,-1.5 -3.79,0.46 -7.6,0.99 -11.41,1.5 m -35.89,5.48 c 3.86,-0.67 7.69,-1.27 11.53,-1.89 -3.84,0.62 -7.67,1.22 -11.53,1.89 m -35.12,6.67 c 0.94,-0.2 1.86,-0.35 2.8,-0.55 -0.94,0.2 -1.86,0.35 -2.8,0.55 m -72.88,18.23 c -3.61,1.03 -7.22,2.04 -10.84,3.11 3.62,-1.07 7.23,-2.08 10.84,-3.11 m 37.46,-10.04 c -3.58,0.88 -7.18,1.84 -10.77,2.77 3.59,-0.93 7.19,-1.89 10.77,-2.77 m -105.54,32.09 c 6.92,-2.63 13.84,-5.21 20.69,-7.49 -6.88,2.29 -13.78,4.8 -20.69,7.49 m 442.98,-51.27 c -4.14,-0.65 -8.32,-1.21 -12.49,-1.79 4.17,0.58 8.35,1.14 12.49,1.79 m -31.47,-4.21 c -4.32,-0.48 -8.64,-0.96 -13,-1.38 4.36,0.42 8.68,0.9 13,1.38 m 173.65,1741.55 c -411.7,137.22 -968.74,-41.13 -1474.44,-195.42 -32.97,-8.89 -53.46,-16.21 -53.46,-16.21 0,0 304.06,-320.92 553.15,-643.21 249.12,-322.34 754.13,-580.17 1095.02,-251 0,0 -286.84,-146.01 -591.96,246.14 -86.49,111.18 -206.28,279.26 -327.78,420.56 259.19,62.94 501.13,95.56 666.59,40.46 435.99,-145.32 633.06,-493.37 501.97,-886.68 -82.15,-246.47 -256.75,-401.36 -482.96,-446.94 -114.63,-8.91 -239.9,8.04 -371.35,53.16 -271.24,93.12 -562.82,500.06 -820.13,859.1 -4.15,5.78 -10.01,13.9 -17.44,24.02 -12.96,17.66 -26.55,34.7 -40.44,51.42 -233.74,318.39 -490.04,610.27 -796.72,715.55 -692.18,237.6 -1273.37,-84.84 -1471.11,-660.88 -197.74,-576.03 62.88,-1187.45 755.06,-1425.06 410.45,-140.9 969.07,32.46 1476.13,182.22 33.05,8.6 53.6,15.73 53.6,15.73 0,0 -301.17,323.63 -547.37,648.14 -246.23,324.55 -748.9,586.89 -1092.73,260.79 0,0 288.14,143.43 589.74,-251.43 85.48,-111.95 203.77,-281.1 323.99,-423.48 -259.74,-60.61 -501.96,-91.07 -666.92,-34.49 -434.68,149.22 -628.62,499.02 -494.01,891.14 134.6,392.12 502.49,549.05 937.17,399.83 16.46,-5.65 32.99,-12.5 49.57,-20.37 -4.9,3.93 -0.79,3.67 9.3,0.6 -6.09,-0.3 -9.3,-0.6 -9.3,-0.6 464.93,-372.34 898.03,-1428.21 1549.48,-1645.34 694.28,-231.41 1272.56,96.23 1465.13,674.01 192.58,577.78 -73.5,1186.84 -767.78,1418.24" />
</clipPath>
<clipPath
   id="clipPath174"
   clipPathUnits="userSpaceOnUse">
  <path
     inkscape:connector-curvature="0"
     id="path176"
     d="m 5224.17,3968.15 c -3.27,-0.21 -6.5,-0.49 -9.78,-0.66 3.28,0.17 6.52,0.45 9.78,0.66 m -52.05,-1.58 c 4.09,-0.01 8.18,-0.05 12.25,0 -4.07,-0.05 -8.16,-0.01 -12.25,0 m -33.96,0.75 c 4.18,-0.18 8.33,-0.3 12.48,-0.42 -4.15,0.12 -8.3,0.24 -12.48,0.42 m -33.48,2.06 c 2.16,-0.18 4.28,-0.27 6.43,-0.43 -2.15,0.16 -4.27,0.25 -6.43,0.43 m -44.57,4.96 c 3.81,-0.51 7.62,-1.04 11.41,-1.5 -3.79,0.46 -7.6,0.99 -11.41,1.5 m -35.89,5.48 c 3.86,-0.67 7.69,-1.27 11.53,-1.89 -3.84,0.62 -7.67,1.22 -11.53,1.89 m -35.12,6.67 c 0.94,-0.2 1.86,-0.35 2.8,-0.55 -0.94,0.2 -1.86,0.35 -2.8,0.55 m -72.88,18.22 c -3.61,1.04 -7.22,2.05 -10.84,3.12 3.62,-1.07 7.23,-2.08 10.84,-3.12 m 37.46,-10.03 c -3.58,0.88 -7.18,1.84 -10.77,2.76 3.59,-0.92 7.19,-1.88 10.77,-2.76 m -105.54,32.09 c 6.92,-2.63 13.84,-5.21 20.69,-7.5 -6.88,2.3 -13.78,4.81 -20.69,7.5 m 442.98,-51.27 c -4.14,-0.65 -8.32,-1.21 -12.49,-1.79 4.17,0.58 8.35,1.14 12.49,1.79 m -31.47,-4.2 c -4.32,-0.49 -8.64,-0.98 -13,-1.39 4.36,0.41 8.68,0.9 13,1.39 m 173.65,1741.54 c -411.7,137.23 -968.74,-41.13 -1474.44,-195.42 -32.97,-8.9 -53.46,-16.21 -53.46,-16.21 0,0 304.06,-320.92 553.15,-643.21 249.12,-322.34 754.13,-580.17 1095.02,-251 0,0 -286.84,-146.01 -591.96,246.14 -86.49,111.18 -206.28,279.26 -327.78,420.56 259.19,62.94 501.13,95.56 666.59,40.45 435.99,-145.31 633.06,-493.36 501.97,-886.67 -82.15,-246.47 -256.75,-401.36 -482.96,-446.93 -114.63,-8.91 -239.9,8.03 -371.35,53.15 -271.24,93.11 -562.82,500.06 -820.13,859.1 -4.15,5.78 -10.01,13.9 -17.44,24.02 -12.96,17.66 -26.55,34.7 -40.44,51.42 -233.74,318.39 -490.04,610.27 -796.72,715.54 -692.18,237.61 -1273.37,-84.83 -1471.11,-660.87 -197.74,-576.03 62.88,-1187.45 755.06,-1425.06 410.45,-140.9 969.07,32.46 1476.13,182.22 33.05,8.6 53.6,15.73 53.6,15.73 0,0 -301.17,323.63 -547.37,648.14 -246.23,324.55 -748.9,586.89 -1092.73,260.79 0,0 288.14,143.43 589.74,-251.43 85.48,-111.95 203.77,-281.1 323.99,-423.48 -259.74,-60.61 -501.96,-91.07 -666.92,-34.48 -434.68,149.21 -628.62,499 -494.01,891.13 134.6,392.11 502.49,549.05 937.17,399.83 16.46,-5.65 32.99,-12.5 49.57,-20.37 -4.9,3.92 -0.79,3.66 9.3,0.6 -6.09,-0.3 -9.3,-0.6 -9.3,-0.6 464.93,-372.34 898.03,-1428.22 1549.48,-1645.34 694.28,-231.41 1272.56,96.23 1465.13,674.01 192.58,577.78 -73.5,1186.84 -767.78,1418.24" />
</clipPath>
<clipPath
   id="clipPath180"
   clipPathUnits="userSpaceOnUse">
  <path
     inkscape:connector-curvature="0"
     id="path182"
     d="m 5233.66,4509.99 c -468.14,0.1 -594.43,731.13 -599.65,762.66 121.43,-141.25 241.15,-309.23 327.6,-420.36 174.91,-224.8 343.77,-272.75 456.08,-272.74 64.95,0 111,16.05 128.31,23.22 -118.05,-65.32 -221.6,-92.8 -312.34,-92.78 m -599.69,762.89 c -0.09,0.54 -0.14,0.82 -0.14,0.82 v 0 c 0.2,-0.23 0.41,-0.47 0.61,-0.71 -0.16,-0.03 -0.31,-0.07 -0.47,-0.11" />
</clipPath>
<clipPath
   id="clipPath192"
   clipPathUnits="userSpaceOnUse">
  <path
     inkscape:connector-curvature="0"
     id="path194"
     d="m 5224.17,3967.3 c -3.27,-0.21 -6.5,-0.49 -9.78,-0.66 3.28,0.17 6.52,0.45 9.78,0.66 m -52.05,-1.58 c 4.09,-0.01 8.18,-0.05 12.25,0 -4.07,-0.05 -8.16,-0.01 -12.25,0 m -33.96,0.75 c 4.18,-0.19 8.33,-0.3 12.48,-0.42 -4.15,0.12 -8.3,0.23 -12.48,0.42 m -33.48,2.06 c 2.16,-0.18 4.28,-0.27 6.43,-0.43 -2.15,0.17 -4.27,0.25 -6.43,0.43 m -44.57,4.96 c 3.81,-0.51 7.62,-1.04 11.41,-1.5 -3.79,0.46 -7.6,0.99 -11.41,1.5 m -35.89,5.48 c 3.86,-0.67 7.69,-1.27 11.53,-1.89 -3.84,0.62 -7.67,1.22 -11.53,1.89 m -35.12,6.67 c 0.94,-0.2 1.86,-0.35 2.8,-0.55 -0.94,0.2 -1.86,0.35 -2.8,0.55 m -72.88,18.23 c -3.61,1.03 -7.22,2.04 -10.84,3.11 3.62,-1.07 7.23,-2.08 10.84,-3.11 m 37.46,-10.04 c -3.58,0.88 -7.18,1.84 -10.77,2.77 3.59,-0.93 7.19,-1.89 10.77,-2.77 m -105.54,32.09 c 6.92,-2.63 13.84,-5.21 20.69,-7.49 -6.88,2.29 -13.78,4.8 -20.69,7.49 m 442.98,-51.27 c -4.14,-0.65 -8.32,-1.21 -12.49,-1.79 4.17,0.58 8.35,1.14 12.49,1.79 m -31.47,-4.21 c -4.32,-0.48 -8.64,-0.96 -13,-1.38 4.36,0.42 8.68,0.9 13,1.38 m 173.65,1741.55 c -411.7,137.22 -968.74,-41.13 -1474.44,-195.42 -32.97,-8.89 -53.46,-16.21 -53.46,-16.21 0,0 304.06,-320.92 553.15,-643.21 249.12,-322.34 754.13,-580.17 1095.02,-251 0,0 -286.84,-146.01 -591.96,246.14 -86.49,111.18 -206.28,279.26 -327.78,420.56 259.19,62.94 501.13,95.56 666.59,40.46 435.99,-145.32 633.06,-493.37 501.97,-886.68 -82.15,-246.47 -256.75,-401.36 -482.96,-446.94 -114.63,-8.91 -239.9,8.04 -371.35,53.16 -271.24,93.12 -562.82,500.06 -820.13,859.1 -4.15,5.78 -10.01,13.9 -17.44,24.02 -12.96,17.66 -26.55,34.7 -40.44,51.42 -233.74,318.39 -490.04,610.27 -796.72,715.55 -692.18,237.6 -1273.37,-84.84 -1471.11,-660.88 -197.74,-576.03 62.88,-1187.45 755.06,-1425.06 410.45,-140.9 969.07,32.46 1476.13,182.22 33.05,8.6 53.6,15.73 53.6,15.73 0,0 -301.17,323.63 -547.37,648.14 -246.23,324.55 -748.9,586.89 -1092.73,260.79 0,0 288.14,143.43 589.74,-251.43 85.48,-111.95 203.77,-281.1 323.99,-423.48 -259.74,-60.61 -501.96,-91.07 -666.92,-34.49 -434.68,149.22 -628.62,499.02 -494.01,891.14 134.6,392.12 502.49,549.05 937.17,399.83 16.46,-5.65 32.99,-12.5 49.57,-20.37 -4.9,3.93 -0.79,3.67 9.3,0.6 -6.09,-0.3 -9.3,-0.6 -9.3,-0.6 464.93,-372.34 898.03,-1428.21 1549.48,-1645.34 694.28,-231.41 1272.56,96.23 1465.13,674.01 192.58,577.78 -73.5,1186.84 -767.78,1418.24" />
</clipPath>
<clipPath
   id="clipPath198"
   clipPathUnits="userSpaceOnUse">
  <path
     inkscape:connector-curvature="0"
     id="path200"
     d="m 5224.17,3968.15 c -3.27,-0.21 -6.5,-0.49 -9.78,-0.66 3.28,0.17 6.52,0.45 9.78,0.66 m -52.05,-1.58 c 4.09,-0.01 8.18,-0.05 12.25,0 -4.07,-0.05 -8.16,-0.01 -12.25,0 m -33.96,0.75 c 4.18,-0.18 8.33,-0.3 12.48,-0.42 -4.15,0.12 -8.3,0.24 -12.48,0.42 m -33.48,2.06 c 2.16,-0.18 4.28,-0.27 6.43,-0.43 -2.15,0.16 -4.27,0.25 -6.43,0.43 m -44.57,4.96 c 3.81,-0.51 7.62,-1.04 11.41,-1.5 -3.79,0.46 -7.6,0.99 -11.41,1.5 m -35.89,5.48 c 3.86,-0.67 7.69,-1.27 11.53,-1.89 -3.84,0.62 -7.67,1.22 -11.53,1.89 m -35.12,6.67 c 0.94,-0.2 1.86,-0.35 2.8,-0.55 -0.94,0.2 -1.86,0.35 -2.8,0.55 m -72.88,18.22 c -3.61,1.04 -7.22,2.05 -10.84,3.12 3.62,-1.07 7.23,-2.08 10.84,-3.12 m 37.46,-10.03 c -3.58,0.88 -7.18,1.84 -10.77,2.76 3.59,-0.92 7.19,-1.88 10.77,-2.76 m -105.54,32.09 c 6.92,-2.63 13.84,-5.21 20.69,-7.5 -6.88,2.3 -13.78,4.81 -20.69,7.5 m 442.98,-51.27 c -4.14,-0.65 -8.32,-1.21 -12.49,-1.79 4.17,0.58 8.35,1.14 12.49,1.79 m -31.47,-4.2 c -4.32,-0.49 -8.64,-0.98 -13,-1.39 4.36,0.41 8.68,0.9 13,1.39 m 173.65,1741.54 c -411.7,137.23 -968.74,-41.13 -1474.44,-195.42 -32.97,-8.9 -53.46,-16.21 -53.46,-16.21 0,0 304.06,-320.92 553.15,-643.21 249.12,-322.34 754.13,-580.17 1095.02,-251 0,0 -286.84,-146.01 -591.96,246.14 -86.49,111.18 -206.28,279.26 -327.78,420.56 259.19,62.94 501.13,95.56 666.59,40.45 435.99,-145.31 633.06,-493.36 501.97,-886.67 -82.15,-246.47 -256.75,-401.36 -482.96,-446.93 -114.63,-8.91 -239.9,8.03 -371.35,53.15 -271.24,93.11 -562.82,500.06 -820.13,859.1 -4.15,5.78 -10.01,13.9 -17.44,24.02 -12.96,17.66 -26.55,34.7 -40.44,51.42 -233.74,318.39 -490.04,610.27 -796.72,715.54 -692.18,237.61 -1273.37,-84.83 -1471.11,-660.87 -197.74,-576.03 62.88,-1187.45 755.06,-1425.06 410.45,-140.9 969.07,32.46 1476.13,182.22 33.05,8.6 53.6,15.73 53.6,15.73 0,0 -301.17,323.63 -547.37,648.14 -246.23,324.55 -748.9,586.89 -1092.73,260.79 0,0 288.14,143.43 589.74,-251.43 85.48,-111.95 203.77,-281.1 323.99,-423.48 -259.74,-60.61 -501.96,-91.07 -666.92,-34.48 -434.68,149.21 -628.62,499 -494.01,891.13 134.6,392.11 502.49,549.05 937.17,399.83 16.46,-5.65 32.99,-12.5 49.57,-20.37 -4.9,3.92 -0.79,3.66 9.3,0.6 -6.09,-0.3 -9.3,-0.6 -9.3,-0.6 464.93,-372.34 898.03,-1428.22 1549.48,-1645.34 694.28,-231.41 1272.56,96.23 1465.13,674.01 192.58,577.78 -73.5,1186.84 -767.78,1418.24" />
</clipPath>
<clipPath
   id="clipPath204"
   clipPathUnits="userSpaceOnUse">
  <path
     inkscape:connector-curvature="0"
     id="path206"
     d="m 3358.08,4041.1 -17.33,12.56 c -113.29,137.07 -223.32,293.87 -304.08,399.64 -174.7,228.72 -344.86,276.83 -457.15,276.83 -72.69,0 -121.13,-20.18 -130.81,-24.56 7.3,6.86 14.63,13.44 22.07,19.78 107.8,55.77 203.15,79.46 287.47,79.46 478.46,0 599.83,-763.71 599.83,-763.71" />
</clipPath>
<clipPath
   id="clipPath216"
   clipPathUnits="userSpaceOnUse">
  <path
     inkscape:connector-curvature="0"
     id="path218"
     d="m 5224.17,3967.3 c -3.27,-0.21 -6.5,-0.49 -9.78,-0.66 3.28,0.17 6.52,0.45 9.78,0.66 m -52.05,-1.58 c 4.09,-0.01 8.18,-0.05 12.25,0 -4.07,-0.05 -8.16,-0.01 -12.25,0 m -33.96,0.75 c 4.18,-0.19 8.33,-0.3 12.48,-0.42 -4.15,0.12 -8.3,0.23 -12.48,0.42 m -33.48,2.06 c 2.16,-0.18 4.28,-0.27 6.43,-0.43 -2.15,0.17 -4.27,0.25 -6.43,0.43 m -44.57,4.96 c 3.81,-0.51 7.62,-1.04 11.41,-1.5 -3.79,0.46 -7.6,0.99 -11.41,1.5 m -35.89,5.48 c 3.86,-0.67 7.69,-1.27 11.53,-1.89 -3.84,0.62 -7.67,1.22 -11.53,1.89 m -35.12,6.67 c 0.94,-0.2 1.86,-0.35 2.8,-0.55 -0.94,0.2 -1.86,0.35 -2.8,0.55 m -72.88,18.23 c -3.61,1.03 -7.22,2.04 -10.84,3.11 3.62,-1.07 7.23,-2.08 10.84,-3.11 m 37.46,-10.04 c -3.58,0.88 -7.18,1.84 -10.77,2.77 3.59,-0.93 7.19,-1.89 10.77,-2.77 m -105.54,32.09 c 6.92,-2.63 13.84,-5.21 20.69,-7.49 -6.88,2.29 -13.78,4.8 -20.69,7.49 m 442.98,-51.27 c -4.14,-0.65 -8.32,-1.21 -12.49,-1.79 4.17,0.58 8.35,1.14 12.49,1.79 m -31.47,-4.21 c -4.32,-0.48 -8.64,-0.96 -13,-1.38 4.36,0.42 8.68,0.9 13,1.38 m 173.65,1741.55 c -411.7,137.22 -968.74,-41.13 -1474.44,-195.42 -32.97,-8.89 -53.46,-16.21 -53.46,-16.21 0,0 304.06,-320.92 553.15,-643.21 249.12,-322.34 754.13,-580.17 1095.02,-251 0,0 -286.84,-146.01 -591.96,246.14 -86.49,111.18 -206.28,279.26 -327.78,420.56 259.19,62.94 501.13,95.56 666.59,40.46 435.99,-145.32 633.06,-493.37 501.97,-886.68 -82.15,-246.47 -256.75,-401.36 -482.96,-446.94 -114.63,-8.91 -239.9,8.04 -371.35,53.16 -271.24,93.12 -562.82,500.06 -820.13,859.1 -4.15,5.78 -10.01,13.9 -17.44,24.02 -12.96,17.66 -26.55,34.7 -40.44,51.42 -233.74,318.39 -490.04,610.27 -796.72,715.55 -692.18,237.6 -1273.37,-84.84 -1471.11,-660.88 -197.74,-576.03 62.88,-1187.45 755.06,-1425.06 410.45,-140.9 969.07,32.46 1476.13,182.22 33.05,8.6 53.6,15.73 53.6,15.73 0,0 -301.17,323.63 -547.37,648.14 -246.23,324.55 -748.9,586.89 -1092.73,260.79 0,0 288.14,143.43 589.74,-251.43 85.48,-111.95 203.77,-281.1 323.99,-423.48 -259.74,-60.61 -501.96,-91.07 -666.92,-34.49 -434.68,149.22 -628.62,499.02 -494.01,891.14 134.6,392.12 502.49,549.05 937.17,399.83 16.46,-5.65 32.99,-12.5 49.57,-20.37 -4.9,3.93 -0.79,3.67 9.3,0.6 -6.09,-0.3 -9.3,-0.6 -9.3,-0.6 464.93,-372.34 898.03,-1428.21 1549.48,-1645.34 694.28,-231.41 1272.56,96.23 1465.13,674.01 192.58,577.78 -73.5,1186.84 -767.78,1418.24" />
</clipPath>
<clipPath
   id="clipPath222"
   clipPathUnits="userSpaceOnUse">
  <path
     inkscape:connector-curvature="0"
     id="path224"
     d="m 6250.56,4501.8 h -0.12 c 7.7,53.3 11.55,106.48 11.57,159.16 0.02,-52.68 -3.79,-105.86 -11.45,-159.16" />
</clipPath>
<clipPath
   id="clipPath234"
   clipPathUnits="userSpaceOnUse">
  <path
     inkscape:connector-curvature="0"
     id="path236"
     d="m 5224.17,3967.3 c -3.27,-0.21 -6.5,-0.49 -9.78,-0.66 3.28,0.17 6.52,0.45 9.78,0.66 m -52.05,-1.58 c 4.09,-0.01 8.18,-0.05 12.25,0 -4.07,-0.05 -8.16,-0.01 -12.25,0 m -33.96,0.75 c 4.18,-0.19 8.33,-0.3 12.48,-0.42 -4.15,0.12 -8.3,0.23 -12.48,0.42 m -33.48,2.06 c 2.16,-0.18 4.28,-0.27 6.43,-0.43 -2.15,0.17 -4.27,0.25 -6.43,0.43 m -44.57,4.96 c 3.81,-0.51 7.62,-1.04 11.41,-1.5 -3.79,0.46 -7.6,0.99 -11.41,1.5 m -35.89,5.48 c 3.86,-0.67 7.69,-1.27 11.53,-1.89 -3.84,0.62 -7.67,1.22 -11.53,1.89 m -35.12,6.67 c 0.94,-0.2 1.86,-0.35 2.8,-0.55 -0.94,0.2 -1.86,0.35 -2.8,0.55 m -72.88,18.23 c -3.61,1.03 -7.22,2.04 -10.84,3.11 3.62,-1.07 7.23,-2.08 10.84,-3.11 m 37.46,-10.04 c -3.58,0.88 -7.18,1.84 -10.77,2.77 3.59,-0.93 7.19,-1.89 10.77,-2.77 m -105.54,32.09 c 6.92,-2.63 13.84,-5.21 20.69,-7.49 -6.88,2.29 -13.78,4.8 -20.69,7.49 m 442.98,-51.27 c -4.14,-0.65 -8.32,-1.21 -12.49,-1.79 4.17,0.58 8.35,1.14 12.49,1.79 m -31.47,-4.21 c -4.32,-0.48 -8.64,-0.96 -13,-1.38 4.36,0.42 8.68,0.9 13,1.38 m 173.65,1741.55 c -411.7,137.22 -968.74,-41.13 -1474.44,-195.42 -32.97,-8.89 -53.46,-16.21 -53.46,-16.21 0,0 304.06,-320.92 553.15,-643.21 249.12,-322.34 754.13,-580.17 1095.02,-251 0,0 -286.84,-146.01 -591.96,246.14 -86.49,111.18 -206.28,279.26 -327.78,420.56 259.19,62.94 501.13,95.56 666.59,40.46 435.99,-145.32 633.06,-493.37 501.97,-886.68 -82.15,-246.47 -256.75,-401.36 -482.96,-446.94 -114.63,-8.91 -239.9,8.04 -371.35,53.16 -271.24,93.12 -562.82,500.06 -820.13,859.1 -4.15,5.78 -10.01,13.9 -17.44,24.02 -12.96,17.66 -26.55,34.7 -40.44,51.42 -233.74,318.39 -490.04,610.27 -796.72,715.55 -692.18,237.6 -1273.37,-84.84 -1471.11,-660.88 -197.74,-576.03 62.88,-1187.45 755.06,-1425.06 410.45,-140.9 969.07,32.46 1476.13,182.22 33.05,8.6 53.6,15.73 53.6,15.73 0,0 -301.17,323.63 -547.37,648.14 -246.23,324.55 -748.9,586.89 -1092.73,260.79 0,0 288.14,143.43 589.74,-251.43 85.48,-111.95 203.77,-281.1 323.99,-423.48 -259.74,-60.61 -501.96,-91.07 -666.92,-34.49 -434.68,149.22 -628.62,499.02 -494.01,891.14 134.6,392.12 502.49,549.05 937.17,399.83 16.46,-5.65 32.99,-12.5 49.57,-20.37 -4.9,3.93 -0.79,3.67 9.3,0.6 -6.09,-0.3 -9.3,-0.6 -9.3,-0.6 464.93,-372.34 898.03,-1428.21 1549.48,-1645.34 694.28,-231.41 1272.56,96.23 1465.13,674.01 192.58,577.78 -73.5,1186.84 -767.78,1418.24" />
</clipPath>
<clipPath
   id="clipPath240"
   clipPathUnits="userSpaceOnUse">
  <path
     inkscape:connector-curvature="0"
     id="path242"
     d="m 6250.44,4501.8 h -0.08 c -147.49,906.43 -923.2,1094.75 -1542.67,1094.75 -397.41,0 -730.61,-77.56 -792.12,-92.77 9.15,2.98 24.11,7.62 43.29,12.79 378.56,115.5 785.86,244.48 1139.46,244.48 118.75,0 231.48,-14.56 334.98,-49.06 547.32,-182.42 828.53,-599.55 828.71,-1051.03 -0.02,-52.68 -3.87,-105.86 -11.57,-159.16" />
</clipPath>
<clipPath
   id="clipPath252"
   clipPathUnits="userSpaceOnUse">
  <path
     inkscape:connector-curvature="0"
     id="path254"
     d="m 5224.17,3967.3 c -3.27,-0.21 -6.5,-0.49 -9.78,-0.66 3.28,0.17 6.52,0.45 9.78,0.66 m -52.05,-1.58 c 4.09,-0.01 8.18,-0.05 12.25,0 -4.07,-0.05 -8.16,-0.01 -12.25,0 m -33.96,0.75 c 4.18,-0.19 8.33,-0.3 12.48,-0.42 -4.15,0.12 -8.3,0.23 -12.48,0.42 m -33.48,2.06 c 2.16,-0.18 4.28,-0.27 6.43,-0.43 -2.15,0.17 -4.27,0.25 -6.43,0.43 m -44.57,4.96 c 3.81,-0.51 7.62,-1.04 11.41,-1.5 -3.79,0.46 -7.6,0.99 -11.41,1.5 m -35.89,5.48 c 3.86,-0.67 7.69,-1.27 11.53,-1.89 -3.84,0.62 -7.67,1.22 -11.53,1.89 m -35.12,6.67 c 0.94,-0.2 1.86,-0.35 2.8,-0.55 -0.94,0.2 -1.86,0.35 -2.8,0.55 m -72.88,18.23 c -3.61,1.03 -7.22,2.04 -10.84,3.11 3.62,-1.07 7.23,-2.08 10.84,-3.11 m 37.46,-10.04 c -3.58,0.88 -7.18,1.84 -10.77,2.77 3.59,-0.93 7.19,-1.89 10.77,-2.77 m -105.54,32.09 c 6.92,-2.63 13.84,-5.21 20.69,-7.49 -6.88,2.29 -13.78,4.8 -20.69,7.49 m 442.98,-51.27 c -4.14,-0.65 -8.32,-1.21 -12.49,-1.79 4.17,0.58 8.35,1.14 12.49,1.79 m -31.47,-4.21 c -4.32,-0.48 -8.64,-0.96 -13,-1.38 4.36,0.42 8.68,0.9 13,1.38 m 173.65,1741.55 c -411.7,137.22 -968.74,-41.13 -1474.44,-195.42 -32.97,-8.89 -53.46,-16.21 -53.46,-16.21 0,0 304.06,-320.92 553.15,-643.21 249.12,-322.34 754.13,-580.17 1095.02,-251 0,0 -286.84,-146.01 -591.96,246.14 -86.49,111.18 -206.28,279.26 -327.78,420.56 259.19,62.94 501.13,95.56 666.59,40.46 435.99,-145.32 633.06,-493.37 501.97,-886.68 -82.15,-246.47 -256.75,-401.36 -482.96,-446.94 -114.63,-8.91 -239.9,8.04 -371.35,53.16 -271.24,93.12 -562.82,500.06 -820.13,859.1 -4.15,5.78 -10.01,13.9 -17.44,24.02 -12.96,17.66 -26.55,34.7 -40.44,51.42 -233.74,318.39 -490.04,610.27 -796.72,715.55 -692.18,237.6 -1273.37,-84.84 -1471.11,-660.88 -197.74,-576.03 62.88,-1187.45 755.06,-1425.06 410.45,-140.9 969.07,32.46 1476.13,182.22 33.05,8.6 53.6,15.73 53.6,15.73 0,0 -301.17,323.63 -547.37,648.14 -246.23,324.55 -748.9,586.89 -1092.73,260.79 0,0 288.14,143.43 589.74,-251.43 85.48,-111.95 203.77,-281.1 323.99,-423.48 -259.74,-60.61 -501.96,-91.07 -666.92,-34.49 -434.68,149.22 -628.62,499.02 -494.01,891.14 134.6,392.12 502.49,549.05 937.17,399.83 16.46,-5.65 32.99,-12.5 49.57,-20.37 -4.9,3.93 -0.79,3.67 9.3,0.6 -6.09,-0.3 -9.3,-0.6 -9.3,-0.6 464.93,-372.34 898.03,-1428.21 1549.48,-1645.34 694.28,-231.41 1272.56,96.23 1465.13,674.01 192.58,577.78 -73.5,1186.84 -767.78,1418.24" />
</clipPath>
<clipPath
   id="clipPath258"
   clipPathUnits="userSpaceOnUse">
  <path
     inkscape:connector-curvature="0"
     id="path260"
     d="m 2905.01,3544.89 c -123.6,0 -240.71,15.38 -347.71,52.11 -542.08,186.08 -819.47,601.46 -819.31,1049.53 0.19,-447.75 277.57,-862.71 819.31,-1048.68 107,-36.73 224.11,-52.1 347.71,-52.11 350.53,-0.01 753.54,123.61 1128.42,234.33 7.75,2.02 14.81,3.95 21.08,5.73 -0.53,-0.41 -1.17,-0.92 -1.7,-1.33 -5.84,-1.64 -12.32,-3.41 -19.38,-5.25 -374.88,-110.72 -777.89,-234.33 -1128.42,-234.33" />
</clipPath>
<clipPath
   id="clipPath270"
   clipPathUnits="userSpaceOnUse">
  <path
     inkscape:connector-curvature="0"
     id="path272"
     d="m 5224.17,3967.3 c -3.27,-0.21 -6.5,-0.49 -9.78,-0.66 3.28,0.17 6.52,0.45 9.78,0.66 m -52.05,-1.58 c 4.09,-0.01 8.18,-0.05 12.25,0 -4.07,-0.05 -8.16,-0.01 -12.25,0 m -33.96,0.75 c 4.18,-0.19 8.33,-0.3 12.48,-0.42 -4.15,0.12 -8.3,0.23 -12.48,0.42 m -33.48,2.06 c 2.16,-0.18 4.28,-0.27 6.43,-0.43 -2.15,0.17 -4.27,0.25 -6.43,0.43 m -44.57,4.96 c 3.81,-0.51 7.62,-1.04 11.41,-1.5 -3.79,0.46 -7.6,0.99 -11.41,1.5 m -35.89,5.48 c 3.86,-0.67 7.69,-1.27 11.53,-1.89 -3.84,0.62 -7.67,1.22 -11.53,1.89 m -35.12,6.67 c 0.94,-0.2 1.86,-0.35 2.8,-0.55 -0.94,0.2 -1.86,0.35 -2.8,0.55 m -72.88,18.23 c -3.61,1.03 -7.22,2.04 -10.84,3.11 3.62,-1.07 7.23,-2.08 10.84,-3.11 m 37.46,-10.04 c -3.58,0.88 -7.18,1.84 -10.77,2.77 3.59,-0.93 7.19,-1.89 10.77,-2.77 m -105.54,32.09 c 6.92,-2.63 13.84,-5.21 20.69,-7.49 -6.88,2.29 -13.78,4.8 -20.69,7.49 m 442.98,-51.27 c -4.14,-0.65 -8.32,-1.21 -12.49,-1.79 4.17,0.58 8.35,1.14 12.49,1.79 m -31.47,-4.21 c -4.32,-0.48 -8.64,-0.96 -13,-1.38 4.36,0.42 8.68,0.9 13,1.38 m 173.65,1741.55 c -411.7,137.22 -968.74,-41.13 -1474.44,-195.42 -32.97,-8.89 -53.46,-16.21 -53.46,-16.21 0,0 304.06,-320.92 553.15,-643.21 249.12,-322.34 754.13,-580.17 1095.02,-251 0,0 -286.84,-146.01 -591.96,246.14 -86.49,111.18 -206.28,279.26 -327.78,420.56 259.19,62.94 501.13,95.56 666.59,40.46 435.99,-145.32 633.06,-493.37 501.97,-886.68 -82.15,-246.47 -256.75,-401.36 -482.96,-446.94 -114.63,-8.91 -239.9,8.04 -371.35,53.16 -271.24,93.12 -562.82,500.06 -820.13,859.1 -4.15,5.78 -10.01,13.9 -17.44,24.02 -12.96,17.66 -26.55,34.7 -40.44,51.42 -233.74,318.39 -490.04,610.27 -796.72,715.55 -692.18,237.6 -1273.37,-84.84 -1471.11,-660.88 -197.74,-576.03 62.88,-1187.45 755.06,-1425.06 410.45,-140.9 969.07,32.46 1476.13,182.22 33.05,8.6 53.6,15.73 53.6,15.73 0,0 -301.17,323.63 -547.37,648.14 -246.23,324.55 -748.9,586.89 -1092.73,260.79 0,0 288.14,143.43 589.74,-251.43 85.48,-111.95 203.77,-281.1 323.99,-423.48 -259.74,-60.61 -501.96,-91.07 -666.92,-34.49 -434.68,149.22 -628.62,499.02 -494.01,891.14 134.6,392.12 502.49,549.05 937.17,399.83 16.46,-5.65 32.99,-12.5 49.57,-20.37 -4.9,3.93 -0.79,3.67 9.3,0.6 -6.09,-0.3 -9.3,-0.6 -9.3,-0.6 464.93,-372.34 898.03,-1428.21 1549.48,-1645.34 694.28,-231.41 1272.56,96.23 1465.13,674.01 192.58,577.78 -73.5,1186.84 -767.78,1418.24" />
</clipPath>
<clipPath
   id="clipPath276"
   clipPathUnits="userSpaceOnUse">
  <path
     inkscape:connector-curvature="0"
     id="path278"
     d="m 2905.01,3545.74 c -123.6,0.01 -240.71,15.38 -347.71,52.11 -541.74,185.97 -819.12,600.93 -819.31,1048.68 0.01,28.95 1.18,58.02 3.51,87.19 -2.29,-28.99 -3.43,-57.91 -3.43,-86.68 0,-5.32 0.04,-10.62 0.12,-15.92 9.4,14.85 18.79,29.36 28.25,43.63 199.2,-791.16 927.43,-960.66 1515.07,-960.63 401.81,0.01 737.96,79.28 794.05,93.25 0.87,-0.94 1.69,-1.83 2.46,-2.67 -7.82,-6.42 -15.56,-12.64 -23.51,-18.9 -6.27,-1.78 -13.33,-3.71 -21.08,-5.73 -374.88,-110.72 -777.89,-234.34 -1128.42,-234.33" />
</clipPath>
<clipPath
   id="clipPath288"
   clipPathUnits="userSpaceOnUse">
  <path
     inkscape:connector-curvature="0"
     id="path290"
     d="m 5224.17,3967.3 c -3.27,-0.21 -6.5,-0.49 -9.78,-0.66 3.28,0.17 6.52,0.45 9.78,0.66 m -52.05,-1.58 c 4.09,-0.01 8.18,-0.05 12.25,0 -4.07,-0.05 -8.16,-0.01 -12.25,0 m -33.96,0.75 c 4.18,-0.19 8.33,-0.3 12.48,-0.42 -4.15,0.12 -8.3,0.23 -12.48,0.42 m -33.48,2.06 c 2.16,-0.18 4.28,-0.27 6.43,-0.43 -2.15,0.17 -4.27,0.25 -6.43,0.43 m -44.57,4.96 c 3.81,-0.51 7.62,-1.04 11.41,-1.5 -3.79,0.46 -7.6,0.99 -11.41,1.5 m -35.89,5.48 c 3.86,-0.67 7.69,-1.27 11.53,-1.89 -3.84,0.62 -7.67,1.22 -11.53,1.89 m -35.12,6.67 c 0.94,-0.2 1.86,-0.35 2.8,-0.55 -0.94,0.2 -1.86,0.35 -2.8,0.55 m -72.88,18.23 c -3.61,1.03 -7.22,2.04 -10.84,3.11 3.62,-1.07 7.23,-2.08 10.84,-3.11 m 37.46,-10.04 c -3.58,0.88 -7.18,1.84 -10.77,2.77 3.59,-0.93 7.19,-1.89 10.77,-2.77 m -105.54,32.09 c 6.92,-2.63 13.84,-5.21 20.69,-7.49 -6.88,2.29 -13.78,4.8 -20.69,7.49 m 442.98,-51.27 c -4.14,-0.65 -8.32,-1.21 -12.49,-1.79 4.17,0.58 8.35,1.14 12.49,1.79 m -31.47,-4.21 c -4.32,-0.48 -8.64,-0.96 -13,-1.38 4.36,0.42 8.68,0.9 13,1.38 m 173.65,1741.55 c -411.7,137.22 -968.74,-41.13 -1474.44,-195.42 -32.97,-8.89 -53.46,-16.21 -53.46,-16.21 0,0 304.06,-320.92 553.15,-643.21 249.12,-322.34 754.13,-580.17 1095.02,-251 0,0 -286.84,-146.01 -591.96,246.14 -86.49,111.18 -206.28,279.26 -327.78,420.56 259.19,62.94 501.13,95.56 666.59,40.46 435.99,-145.32 633.06,-493.37 501.97,-886.68 -82.15,-246.47 -256.75,-401.36 -482.96,-446.94 -114.63,-8.91 -239.9,8.04 -371.35,53.16 -271.24,93.12 -562.82,500.06 -820.13,859.1 -4.15,5.78 -10.01,13.9 -17.44,24.02 -12.96,17.66 -26.55,34.7 -40.44,51.42 -233.74,318.39 -490.04,610.27 -796.72,715.55 -692.18,237.6 -1273.37,-84.84 -1471.11,-660.88 -197.74,-576.03 62.88,-1187.45 755.06,-1425.06 410.45,-140.9 969.07,32.46 1476.13,182.22 33.05,8.6 53.6,15.73 53.6,15.73 0,0 -301.17,323.63 -547.37,648.14 -246.23,324.55 -748.9,586.89 -1092.73,260.79 0,0 288.14,143.43 589.74,-251.43 85.48,-111.95 203.77,-281.1 323.99,-423.48 -259.74,-60.61 -501.96,-91.07 -666.92,-34.49 -434.68,149.22 -628.62,499.02 -494.01,891.14 134.6,392.12 502.49,549.05 937.17,399.83 16.46,-5.65 32.99,-12.5 49.57,-20.37 -4.9,3.93 -0.79,3.67 9.3,0.6 -6.09,-0.3 -9.3,-0.6 -9.3,-0.6 464.93,-372.34 898.03,-1428.21 1549.48,-1645.34 694.28,-231.41 1272.56,96.23 1465.13,674.01 192.58,577.78 -73.5,1186.84 -767.78,1418.24" />
</clipPath>
<clipPath
   id="clipPath294"
   clipPathUnits="userSpaceOnUse">
  <path
     inkscape:connector-curvature="0"
     id="path296"
     d="m 1738.19,4631.12 c -0.08,5.3 -0.12,10.6 -0.12,15.92 0,28.77 1.14,57.69 3.43,86.68 1.02,12.77 2.27,25.55 3.73,38.35 6.21,-33.44 13.29,-65.87 21.21,-97.32 -9.46,-14.27 -18.85,-28.78 -28.25,-43.63" />
</clipPath>
<clipPath
   id="clipPath4685"
   clipPathUnits="userSpaceOnUse">
  <path
     style="fill:#1d673e;fill-opacity:1"
     d="m 6250.44,4501.8 h -0.08 c -147.49,906.43 -923.2,1094.75 -1542.67,1094.75 -397.41,0 -730.61,-77.56 -792.12,-92.77 9.15,2.98 24.11,7.62 43.29,12.79 378.56,115.5 785.86,244.48 1139.46,244.48 118.75,0 231.48,-14.56 334.98,-49.06 547.32,-182.42 828.53,-599.55 828.71,-1051.03 -0.02,-52.68 -3.87,-105.86 -11.57,-159.16"
     id="path4687"
     inkscape:connector-curvature="0" />
</clipPath>
<linearGradient
   gradientTransform="translate(805.01698,29.857864)"
   gradientUnits="userSpaceOnUse"
   y2="367.20966"
   x2="-216.59935"
   y1="367.20966"
   x1="-329.04395"
   id="linearGradient4714"
   xlink:href="#linearGradient102"
   inkscape:collect="always" />
<linearGradient
   gradientTransform="translate(805.01698,29.857864)"
   gradientUnits="userSpaceOnUse"
   y2="378.27219"
   x2="-133.05873"
   y1="517.27216"
   x1="-333.57651"
   id="linearGradient4724"
   xlink:href="#linearGradient102"
   inkscape:collect="always" />
<linearGradient
   gradientTransform="translate(815.01698,5.857864)"
   gradientUnits="userSpaceOnUse"
   y2="359.9158"
   x2="-135.92883"
   y1="359.9158"
   x1="-430.0386"
   id="linearGradient4782"
   xlink:href="#linearGradient102"
   inkscape:collect="always" />
<linearGradient
   gradientTransform="translate(805.01698,29.857864)"
   gradientUnits="userSpaceOnUse"
   y2="402.59238"
   x2="-236.78027"
   y1="402.59238"
   x1="-510.4306"
   id="linearGradient4812"
   xlink:href="#linearGradient4652"
   inkscape:collect="always" />
<linearGradient
   gradientTransform="translate(805.01698,29.857864)"
   y2="349.2507"
   x2="-378.46658"
   y1="511.85587"
   x1="-508.78802"
   gradientUnits="userSpaceOnUse"
   id="linearGradient4826"
   xlink:href="#linearGradient4832"
   inkscape:collect="always" />
<radialGradient
   gradientTransform="matrix(0.75,0,0,0.75,-8.3221206,93.31257)"
   gradientUnits="userSpaceOnUse"
   r="50"
   fy="283.6124"
   fx="455.15912"
   cy="283.6124"
   cx="455.15912"
   id="radialGradient4517"
   xlink:href="#linearGradient4619"
   inkscape:collect="always" />
<linearGradient
   y2="327.84644"
   x2="-347.61481"
   y1="432.42365"
   x1="-247.90569"
   gradientTransform="matrix(1.6253104,-0.95692179,0.36109202,2.321925,1013.0584,-808.5707)"
   gradientUnits="userSpaceOnUse"
   id="linearGradient4610"
   xlink:href="#linearGradient4551"
   inkscape:collect="always" />
<linearGradient
   inkscape:collect="always"
   xlink:href="#linearGradient4551"
   id="linearGradient1160"
   x1="436.62503"
   y1="171.57846"
   x2="925.53485"
   y2="171.57846"
   gradientUnits="userSpaceOnUse"
   gradientTransform="matrix(0.74872174,0,0,0.74872174,171.14058,43.113936)" />

</defs>
  <sodipodi:namedview
     pagecolor="#ffffff"
     bordercolor="#666666"
     borderopacity="1"
     objecttolerance="10"
     gridtolerance="10"
     guidetolerance="10"
     inkscape:pageopacity="0"
     inkscape:pageshadow="2"
     inkscape:window-width="1366"
     inkscape:window-height="715"
     id="namedview9"
     showgrid="false"
     inkscape:zoom="0.26481149"
     inkscape:cx="-199.50496"
     inkscape:cy="374.26162"
     inkscape:window-x="0"
     inkscape:window-y="0"
     inkscape:window-maximized="1"
     inkscape:current-layer="svg2" />
  <g
     id="g1318"
     transform="translate(13.761096)">
    <g
       id="g1342">
      <g
         id="g4563"
         transform="matrix(0.72725838,0,0,0.72725838,-175.08624,-136.16726)">
        <g
           id="g4627"
           transform="matrix(1.1038288,0,0,1.1038288,-28.397645,-41.609849)">
          <path
             id="path4608"
             transform="matrix(0.60517998,0,0,0.60517998,237.0438,213.5854)"
             d="m 605.48633,260.13086 c -25.96153,0.31501 -55.53101,21.42222 -88.58985,74.60547 79.8853,-85.98895 142.7504,14.51668 199.3086,80.14258 -1.37084,-4.61901 -2.81923,-9.26089 -4.30469,-13.9043 19.2571,19.62317 48.33315,8.06853 94.65234,-66.44727 -97.38529,83.48895 -83.9252,-54.55773 -132.90625,-72.91406 3.15593,23.92199 6.65983,48.88688 11.33594,71.35156 -20.83369,-41.84307 -47.40689,-73.22334 -79.49609,-72.83398 z"
             style="fill:url(#linearGradient4610);fill-opacity:1;fill-rule:evenodd;stroke:none;stroke-width:1px;stroke-linecap:butt;stroke-linejoin:miter;stroke-opacity:1"
             inkscape:connector-curvature="0" />
          <path
             sodipodi:nodetypes="ccsccc"
             inkscape:connector-curvature="0"
             id="path4774"
             d="m 384.97837,320.1244 c 2.58053,-1.81422 115.68166,-41.23106 169.74816,-32.26455 31.41895,6.92743 52.2685,18.35992 68.56257,29.47035 37.03306,25.25172 61.63577,71.85816 54.59675,127.68212 L 592.53498,340.43548 Z"
             style="display:inline;fill:url(#linearGradient4782);fill-opacity:1;fill-rule:evenodd;stroke:none;stroke-width:0.1;stroke-linecap:square;stroke-linejoin:round;stroke-miterlimit:4;stroke-dasharray:none;stroke-opacity:1" />
          <path
             style="fill:url(#linearGradient4724);fill-opacity:1;fill-rule:evenodd;stroke:none;stroke-width:0.30000001;stroke-linecap:round;stroke-linejoin:round;stroke-miterlimit:4;stroke-dasharray:none;stroke-opacity:1"
             d="m 590.63308,432.33239 c -12.40881,11.22507 -24.47934,16.64157 -36.58326,17.88916 -23.63481,2.4361 -41.1063,-3.71664 -57.77703,-13.12539 -17.0899,-9.64534 -29.7686,-20.82281 -40.54921,-33.96221 -20.35589,-24.80972 -39.28916,-49.75026 -70.79042,-82.98608 31.78088,-7.33887 71.48043,-13.29685 111.58795,-11.53082 94.37873,4.15574 163.44608,39.44259 181.43714,136.32264 -6.64499,36.51963 -20.09223,62.27035 -37.80253,79.53988 -37.41822,36.48695 -79.31644,42.83319 -119.31735,38.11444 -18.79104,-2.2167 -36.37032,-9.22567 -53.50837,-16.49586 -5.3297,-2.26093 -20.16326,-12.5371 -35.31097,-27.52579 -24.1735,-23.9197 -45.69096,-53.86144 -60.57856,-75.26477 59.28765,50.507 133.38423,87.95665 189.56003,67.70944 6.68731,-1.2356 19.53754,-5.64601 31.99688,-14.28057 28.52098,-19.76558 59.97212,-92.21557 -1.00654,-136.70453 -37.31563,-26.60778 -70.59366,-22.17648 -115.9313,-11.24116 44.65875,69.70572 69.26087,99.65219 114.57354,83.54162 z"
             id="path4716"
             inkscape:connector-curvature="0"
             sodipodi:nodetypes="cssscscssssccsccc" />
          <path
             style="fill:url(#linearGradient4714);fill-opacity:1;fill-rule:evenodd;stroke:none;stroke-width:1px;stroke-linecap:butt;stroke-linejoin:miter;stroke-opacity:1"
             d="m 475.97302,349.67319 c 8.96216,52.16735 43.09913,122.82754 112.44461,83.22473 -52.56549,15.36995 -80.19287,-46.83755 -112.44461,-83.22473 z"
             id="path4706"
             inkscape:connector-curvature="0"
             sodipodi:nodetypes="ccc" />
          <path
             sodipodi:nodetypes="ccscssc"
             inkscape:connector-curvature="0"
             id="path4804"
             d="m 294.58639,348.95566 c 36.51906,30.03237 55.16645,67.50135 77.07464,95.10586 0,0 53.74011,47.72971 109.9551,64.70027 56.21499,16.97057 86.74558,0.52145 86.74558,0.52145 -10.91944,1.77499 -48.57482,4.51773 -73.6641,-9.71383 C 456.00516,477.62164 417.06805,416.3045 400.29885,398.09958 348.68006,342.06137 294.58639,348.95566 294.58639,348.95566 Z"
             style="fill:url(#linearGradient4812);fill-opacity:1;fill-rule:evenodd;stroke:none;stroke-width:1px;stroke-linecap:butt;stroke-linejoin:miter;stroke-opacity:1" />
          <path
             style="fill:url(#linearGradient4826);fill-opacity:1;fill-rule:evenodd;stroke:none;stroke-width:1px;stroke-linecap:butt;stroke-linejoin:miter;stroke-opacity:1"
             d="m 294.58639,348.95566 c 36.51906,30.03237 55.16645,67.50135 77.07464,95.10586 0,0 52.74011,48.72971 108.9551,65.70027 56.21499,16.97057 87.87058,-0.47855 87.87058,-0.47855 -10.91944,1.77499 -48.69982,4.51773 -73.7891,-9.71383 C 456.00516,477.62164 417.06805,416.3045 400.29885,398.09958 348.68006,342.06137 294.58639,348.95566 294.58639,348.95566 Z"
             id="path4814"
             inkscape:connector-curvature="0"
             sodipodi:nodetypes="ccscssc" />
          <circle
             style="opacity:1;fill:url(#radialGradient4517);fill-opacity:1;stroke:none"
             id="path4488"
             cx="323.63284"
             cy="297.46332"
             r="37.5" />
        </g>
      </g>
      <g
         id="g1303"
         transform="matrix(0.85602939,0,0,0.85602939,127.28055,23.651491)">
        <rect
           ry="85.476891"
           y="14.28173"
           x="357.59619"
           height="294.42041"
           width="585.67499"
           id="rect1320"
           style="opacity:1;fill:#273238;fill-opacity:1;stroke:none;stroke-width:0.88303685;stroke-linecap:round;stroke-miterlimit:4;stroke-dasharray:7.064295, 7.064295;stroke-dashoffset:0;stroke-opacity:1" />
        <g
           transform="matrix(0.87386186,0,0,0.87386186,58.816151,17.933913)"
           id="g1325">
          <path
             inkscape:connector-curvature="0"
             id="path1207"
             style="font-style:normal;font-variant:normal;font-weight:900;font-stretch:normal;font-size:257.00567627px;line-height:1.25;font-family:Roboto;-inkscape-font-specification:'Roboto Heavy';letter-spacing:-21.2400074px;word-spacing:0px;fill:#ffffff;fill-opacity:1;stroke:none;stroke-width:7.9430933"
             d="M 511.66523,277.22084 H 459.38354 V 51.33915 h 52.28169 z" />
          <path
             inkscape:connector-curvature="0"
             id="path1209"
             style="font-style:normal;font-variant:normal;font-weight:900;font-stretch:normal;font-size:257.00567627px;line-height:1.25;font-family:Roboto;-inkscape-font-specification:'Roboto Heavy';letter-spacing:-21.2400074px;word-spacing:0px;fill:#ffffff;fill-opacity:1;stroke:none;stroke-width:7.9430933"
             d="M 542.9436,277.22084 V 51.33915 h 81.60286 q 39.8706,0 66.70956,26.063275 26.83898,25.908125 26.83898,66.554425 v 40.6463 q 0,40.80142 -26.83898,66.70956 -26.83896,25.90813 -66.70956,25.90813 z M 595.53556,91.675161 V 236.88483 h 25.44272 q 20.9437,0 32.73423,-14.27275 11.79052,-14.42787 11.79052,-38.00893 v -40.95657 q 0,-23.42592 -11.79052,-37.69867 -11.79053,-14.272749 -32.73423,-14.272749 z" />
          <path
             inkscape:connector-curvature="0"
             id="path1211"
             style="font-style:normal;font-variant:normal;font-weight:900;font-stretch:normal;font-size:257.00567627px;line-height:1.25;font-family:Roboto;-inkscape-font-specification:'Roboto Heavy';letter-spacing:-21.2400074px;word-spacing:0px;fill:#ffffff;fill-opacity:1;stroke:none;stroke-width:7.9430933"
             d="M 894.64634,91.675161 H 835.07315 V 277.22084 H 782.48119 V 91.675161 H 723.37341 V 51.33915 h 171.27293 z" />
        </g>
      </g>
    </g>
    <path
       sodipodi:type="star"
       style="opacity:1;fill:#ffffff;fill-opacity:1;stroke:none;stroke-width:0.75590551;stroke-linecap:round;stroke-miterlimit:4;stroke-dasharray:6.04724409, 6.04724409;stroke-dashoffset:0;stroke-opacity:1"
       id="path1344"
       sodipodi:sides="5"
       sodipodi:cx="867.99824"
       sodipodi:cy="219.04813"
       sodipodi:r1="35.121353"
       sodipodi:r2="17.560677"
       sodipodi:arg1="0.93804749"
       sodipodi:arg2="1.566366"
       inkscape:flatsided="false"
       inkscape:rounded="0"
       inkscape:randomized="0"
       d="m 888.76772,247.37016 -20.69169,-10.76153 -20.59553,10.94445 3.84074,-23.00447 -16.77316,-16.20549 23.0654,-3.45601 10.22915,-20.95999 10.41446,20.86853 23.09512,3.25151 -16.62891,16.35347 z"
       inkscape:transform-center-x="0.048082355"
       inkscape:transform-center-y="-3.3080286" />
  </g>
</svg>
