<?xml version="1.0" encoding="UTF-8" standalone="no"?>
<!-- Created with Inkscape (http://www.inkscape.org/) -->

<svg
   xmlns:dc="http://purl.org/dc/elements/1.1/"
   xmlns:cc="http://creativecommons.org/ns#"
   xmlns:rdf="http://www.w3.org/1999/02/22-rdf-syntax-ns#"
   xmlns:svg="http://www.w3.org/2000/svg"
   xmlns="http://www.w3.org/2000/svg"
   xmlns:xlink="http://www.w3.org/1999/xlink"
   xmlns:sodipodi="http://sodipodi.sourceforge.net/DTD/sodipodi-0.dtd"
   xmlns:inkscape="http://www.inkscape.org/namespaces/inkscape"
   id="svg2"
   sodipodi:version="0.32"
   inkscape:version="0.92.4 (5da689c313, 2019-01-14)"
   width="2560"
   height="1980"
   version="1.0"
   sodipodi:docname="idt.svg">
  <metadata
     id="metadata7">
    <rdf:RDF>
      <cc:Work
         rdf:about="">
        <dc:format>image/svg+xml</dc:format>
        <dc:type
           rdf:resource="http://purl.org/dc/dcmitype/StillImage" />
        <dc:title></dc:title>
      </cc:Work>
    </rdf:RDF>
  </metadata>
  <defs
     id="defs5">
    <clipPath
       id="clipPath162"
       clipPathUnits="userSpaceOnUse">
      <path
         inkscape:connector-curvature="0"
         id="path160"
         d="M 98.4126,212.309 H 268.337 V 156.135 H 98.4126 Z" />
    </clipPath>
    <clipPath
       id="clipPath178"
       clipPathUnits="userSpaceOnUse">
      <path
         inkscape:connector-curvature="0"
         id="path176"
         d="M 334.944,207.956 H 471.985 V 160.487 H 334.944 Z" />
    </clipPath>
    <clipPath
       id="clipPath194"
       clipPathUnits="userSpaceOnUse">
      <path
         inkscape:connector-curvature="0"
         id="path192"
         d="M 563.119,204.992 H 723.275 V 157.523 H 563.119 Z" />
    </clipPath>
    <clipPath
       id="clipPath210"
       clipPathUnits="userSpaceOnUse">
      <path
         inkscape:connector-curvature="0"
         id="path208"
         d="M 0,800 H 800 V 0 H 0 Z" />
    </clipPath>
    <linearGradient
       y2="327.84644"
       x2="-347.61481"
       y1="432.42365"
       x1="-247.90569"
       gradientTransform="matrix(1.6253104,-0.95692179,0.36109202,2.321925,1013.0584,-808.5707)"
       gradientUnits="userSpaceOnUse"
       id="linearGradient4610"
       xlink:href="#linearGradient4551"
       inkscape:collect="always" />
    <linearGradient
       id="linearGradient4551"
       spreadMethod="pad"
       gradientTransform="matrix(1577.3,1577.3,1577.3,-1577.3,4100.73,4100.24)"
       gradientUnits="userSpaceOnUse"
       y2="0"
       x2="1"
       y1="0"
       x1="0">
      <stop
         id="stop4553"
         offset="0"
         style="stop-opacity:1;stop-color:#db1c5c" />
      <stop
         style="stop-color:#e91b59;stop-opacity:1"
         offset="0.36773011"
         id="stop4557" />
      <stop
         id="stop4555"
         offset="1"
         style="stop-opacity:1;stop-color:#8d1f6d" />
    </linearGradient>
    <linearGradient
       gradientTransform="translate(815.01698,5.857864)"
       gradientUnits="userSpaceOnUse"
       y2="359.9158"
       x2="-135.92883"
       y1="359.9158"
       x1="-430.0386"
       id="linearGradient4782"
       xlink:href="#linearGradient102"
       inkscape:collect="always" />
    <linearGradient
       id="linearGradient102"
       spreadMethod="pad"
       gradientTransform="matrix(1577.3,1577.3,1577.3,-1577.3,4100.73,4100.24)"
       gradientUnits="userSpaceOnUse"
       y2="0"
       x2="1"
       y1="0"
       x1="0">
      <stop
         id="stop104"
         offset="0"
         style="stop-opacity:1;stop-color:#652175" />
      <stop
         id="stop106"
         offset="1"
         style="stop-opacity:1;stop-color:#ee1b58" />
    </linearGradient>
    <linearGradient
       gradientTransform="translate(805.01698,29.857864)"
       gradientUnits="userSpaceOnUse"
       y2="378.27219"
       x2="-133.05873"
       y1="517.27216"
       x1="-333.57651"
       id="linearGradient4724"
       xlink:href="#linearGradient102"
       inkscape:collect="always" />
    <linearGradient
       gradientTransform="translate(805.01698,29.857864)"
       gradientUnits="userSpaceOnUse"
       y2="367.20966"
       x2="-216.59935"
       y1="367.20966"
       x1="-329.04395"
       id="linearGradient4714"
       xlink:href="#linearGradient102"
       inkscape:collect="always" />
    <linearGradient
       gradientTransform="translate(805.01698,29.857864)"
       gradientUnits="userSpaceOnUse"
       y2="402.59238"
       x2="-236.78027"
       y1="402.59238"
       x1="-510.4306"
       id="linearGradient4812"
       xlink:href="#linearGradient4652"
       inkscape:collect="always" />
    <linearGradient
       x1="0"
       y1="0"
       x2="1"
       y2="0"
       gradientUnits="userSpaceOnUse"
       gradientTransform="matrix(1577.3,1577.3,1577.3,-1577.3,4100.73,4100.24)"
       spreadMethod="pad"
       id="linearGradient4652">
      <stop
         style="stop-opacity:1;stop-color:#515117"
         offset="0"
         id="stop4654" />
      <stop
         style="stop-opacity:1;stop-color:#eeff58"
         offset="1"
         id="stop4656" />
    </linearGradient>
    <linearGradient
       gradientTransform="translate(805.01698,29.857864)"
       y2="349.2507"
       x2="-378.46658"
       y1="511.85587"
       x1="-508.78802"
       gradientUnits="userSpaceOnUse"
       id="linearGradient4826"
       xlink:href="#linearGradient4832"
       inkscape:collect="always" />
    <linearGradient
       x1="0"
       y1="0"
       x2="1"
       y2="0"
       gradientUnits="userSpaceOnUse"
       gradientTransform="matrix(1577.3,1577.3,1577.3,-1577.3,4100.73,4100.24)"
       spreadMethod="pad"
       id="linearGradient4832">
      <stop
         style="stop-opacity:1;stop-color:#b4336e"
         offset="0"
         id="stop4834" />
      <stop
         style="stop-opacity:1;stop-color:#3e4990"
         offset="1"
         id="stop4836" />
    </linearGradient>
    <radialGradient
       gradientTransform="matrix(0.75,0,0,0.75,-8.3221206,93.31257)"
       gradientUnits="userSpaceOnUse"
       r="50"
       fy="283.6124"
       fx="455.15912"
       cy="283.6124"
       cx="455.15912"
       id="radialGradient4517"
       xlink:href="#linearGradient4619"
       inkscape:collect="always" />
    <linearGradient
       x1="0"
       y1="0"
       x2="1"
       y2="0"
       gradientUnits="userSpaceOnUse"
       gradientTransform="matrix(2363.58,-2363.58,-2363.58,-2363.58,2119.14,5507.41)"
       spreadMethod="pad"
       id="linearGradient4619">
      <stop
         style="stop-opacity:0.80588233;stop-color:#c647b3"
         offset="0"
         id="stop4621" />
      <stop
         style="stop-opacity:1;stop-color:#3c2b83"
         offset="0.995049"
         id="stop4623" />
      <stop
         style="stop-opacity:1;stop-color:#3c2b83"
         offset="1"
         id="stop4625" />
    </linearGradient>
    <linearGradient
       inkscape:collect="always"
       xlink:href="#linearGradient4551"
       id="linearGradient1136"
       x1="295.79315"
       y1="229.76627"
       x2="2264.2068"
       y2="229.76627"
       gradientUnits="userSpaceOnUse"
       gradientTransform="matrix(1.7665175,0,0,1.7665175,-202.58008,-116.83274)" />
  </defs>
  <sodipodi:namedview
     inkscape:window-height="768"
     inkscape:window-width="1366"
     inkscape:pageshadow="2"
     inkscape:pageopacity="0.0"
     guidetolerance="10.0"
     gridtolerance="10.0"
     objecttolerance="10.0"
     borderopacity="1.0"
     bordercolor="#666666"
     pagecolor="#ffffff"
     id="base"
     inkscape:zoom="0.20641804"
     inkscape:cx="1124.1052"
     inkscape:cy="800.13867"
     inkscape:window-x="0"
     inkscape:window-y="0"
     inkscape:current-layer="svg2"
     showgrid="false"
     inkscape:window-maximized="0" />
  <g
     id="g4563"
     transform="matrix(3.8517048,0,0,3.8517048,-578.86726,-476.63022)">
    <g
       id="g4627"
       transform="matrix(1.1038288,0,0,1.1038288,-28.397645,-41.609849)">
      <path
         id="path4608"
         transform="matrix(0.60517998,0,0,0.60517998,237.0438,213.5854)"
         d="m 605.48633,260.13086 c -25.96153,0.31501 -55.53101,21.42222 -88.58985,74.60547 79.8853,-85.98895 142.7504,14.51668 199.3086,80.14258 -1.37084,-4.61901 -2.81923,-9.26089 -4.30469,-13.9043 19.2571,19.62317 48.33315,8.06853 94.65234,-66.44727 -97.38529,83.48895 -83.9252,-54.55773 -132.90625,-72.91406 3.15593,23.92199 6.65983,48.88688 11.33594,71.35156 -20.83369,-41.84307 -47.40689,-73.22334 -79.49609,-72.83398 z"
         style="fill:url(#linearGradient4610);fill-opacity:1;fill-rule:evenodd;stroke:none;stroke-width:1px;stroke-linecap:butt;stroke-linejoin:miter;stroke-opacity:1"
         inkscape:connector-curvature="0" />
      <path
         sodipodi:nodetypes="ccsccc"
         inkscape:connector-curvature="0"
         id="path4774"
         d="m 384.97837,320.1244 c 2.58053,-1.81422 115.68166,-41.23106 169.74816,-32.26455 31.41895,6.92743 52.2685,18.35992 68.56257,29.47035 37.03306,25.25172 61.63577,71.85816 54.59675,127.68212 L 592.53498,340.43548 Z"
         style="display:inline;fill:url(#linearGradient4782);fill-opacity:1;fill-rule:evenodd;stroke:none;stroke-width:0.1;stroke-linecap:square;stroke-linejoin:round;stroke-miterlimit:4;stroke-dasharray:none;stroke-opacity:1" />
      <path
         style="fill:url(#linearGradient4724);fill-opacity:1;fill-rule:evenodd;stroke:none;stroke-width:0.30000001;stroke-linecap:round;stroke-linejoin:round;stroke-miterlimit:4;stroke-dasharray:none;stroke-opacity:1"
         d="m 590.63308,432.33239 c -12.40881,11.22507 -24.47934,16.64157 -36.58326,17.88916 -23.63481,2.4361 -41.1063,-3.71664 -57.77703,-13.12539 -17.0899,-9.64534 -29.7686,-20.82281 -40.54921,-33.96221 -20.35589,-24.80972 -39.28916,-49.75026 -70.79042,-82.98608 31.78088,-7.33887 71.48043,-13.29685 111.58795,-11.53082 94.37873,4.15574 163.44608,39.44259 181.43714,136.32264 -6.64499,36.51963 -20.09223,62.27035 -37.80253,79.53988 -37.41822,36.48695 -79.31644,42.83319 -119.31735,38.11444 -18.79104,-2.2167 -36.37032,-9.22567 -53.50837,-16.49586 -5.3297,-2.26093 -20.16326,-12.5371 -35.31097,-27.52579 -24.1735,-23.9197 -45.69096,-53.86144 -60.57856,-75.26477 59.28765,50.507 133.38423,87.95665 189.56003,67.70944 6.68731,-1.2356 19.53754,-5.64601 31.99688,-14.28057 28.52098,-19.76558 59.97212,-92.21557 -1.00654,-136.70453 -37.31563,-26.60778 -70.59366,-22.17648 -115.9313,-11.24116 44.65875,69.70572 69.26087,99.65219 114.57354,83.54162 z"
         id="path4716"
         inkscape:connector-curvature="0"
         sodipodi:nodetypes="cssscscssssccsccc" />
      <path
         style="fill:url(#linearGradient4714);fill-opacity:1;fill-rule:evenodd;stroke:none;stroke-width:1px;stroke-linecap:butt;stroke-linejoin:miter;stroke-opacity:1"
         d="m 475.97302,349.67319 c 8.96216,52.16735 43.09913,122.82754 112.44461,83.22473 -52.56549,15.36995 -80.19287,-46.83755 -112.44461,-83.22473 z"
         id="path4706"
         inkscape:connector-curvature="0"
         sodipodi:nodetypes="ccc" />
      <path
         sodipodi:nodetypes="ccscssc"
         inkscape:connector-curvature="0"
         id="path4804"
         d="m 294.58639,348.95566 c 36.51906,30.03237 55.16645,67.50135 77.07464,95.10586 0,0 53.74011,47.72971 109.9551,64.70027 56.21499,16.97057 86.74558,0.52145 86.74558,0.52145 -10.91944,1.77499 -48.57482,4.51773 -73.6641,-9.71383 C 456.00516,477.62164 417.06805,416.3045 400.29885,398.09958 348.68006,342.06137 294.58639,348.95566 294.58639,348.95566 Z"
         style="fill:url(#linearGradient4812);fill-opacity:1;fill-rule:evenodd;stroke:none;stroke-width:1px;stroke-linecap:butt;stroke-linejoin:miter;stroke-opacity:1" />
      <path
         style="fill:url(#linearGradient4826);fill-opacity:1;fill-rule:evenodd;stroke:none;stroke-width:1px;stroke-linecap:butt;stroke-linejoin:miter;stroke-opacity:1"
         d="m 294.58639,348.95566 c 36.51906,30.03237 55.16645,67.50135 77.07464,95.10586 0,0 52.74011,48.72971 108.9551,65.70027 56.21499,16.97057 87.87058,-0.47855 87.87058,-0.47855 -10.91944,1.77499 -48.69982,4.51773 -73.7891,-9.71383 C 456.00516,477.62164 417.06805,416.3045 400.29885,398.09958 348.68006,342.06137 294.58639,348.95566 294.58639,348.95566 Z"
         id="path4814"
         inkscape:connector-curvature="0"
         sodipodi:nodetypes="ccscssc" />
      <circle
         style="opacity:1;fill:url(#radialGradient4517);fill-opacity:1;stroke:none"
         id="path4488"
         cx="323.63284"
         cy="297.46332"
         r="37.5" />
    </g>
  </g>
  <text
     xml:space="preserve"
     style="font-style:normal;font-weight:normal;font-size:70.66069794px;line-height:1.25;font-family:sans-serif;letter-spacing:0px;word-spacing:0px;fill:url(#linearGradient1136);fill-opacity:1;stroke:none;stroke-width:1.7665174"
     x="304.39835"
     y="379.38129"
     id="text1128"><tspan
       sodipodi:role="line"
       id="tspan1126"
       x="304.39835"
       y="379.38129"
       style="font-style:normal;font-variant:normal;font-weight:normal;font-stretch:normal;font-size:133.33332825px;font-family:Sesame;-inkscape-font-specification:Sesame;fill:url(#linearGradient1136);fill-opacity:1;stroke-width:1.7665174">PORTAL BELAJAR IDT</tspan></text>
</svg>
